<svg xmlns="http://www.w3.org/2000/svg" width="27.235" height="24.511" viewBox="0 0 27.235 24.511">
  <g id="Group_2" data-name="Group 2" transform="translate(0 0)">
    <path id="Path_2" data-name="Path 2" d="M22.035,4H19.311v6.809a5.447,5.447,0,0,1-5.447,5.447H9.779l-2.933,2.2a2.662,2.662,0,0,0,1.571.524h4.994l5.083,3.813A1.362,1.362,0,0,0,20.673,21.7V18.979h1.362a2.724,2.724,0,0,0,2.723-2.724V6.723A2.724,2.724,0,0,0,22.035,4Z" transform="translate(2.477 1.447)" fill="#fff"/>
    <path id="Path_3" data-name="Path 3" d="M16.341,0H2.723A2.723,2.723,0,0,0,0,2.723v9.532a2.724,2.724,0,0,0,2.723,2.723H4.085V17.7a1.362,1.362,0,0,0,2.179,1.089l5.083-3.813h4.994a2.724,2.724,0,0,0,2.723-2.723V2.723A2.724,2.724,0,0,0,16.341,0Z" transform="translate(0 0)" fill="#fff"/>
  </g>
</svg>
