<svg xmlns="http://www.w3.org/2000/svg" width="23.673" height="25.011" viewBox="0 0 23.673 25.011">
  <g id="alarm" transform="translate(0.263 0.25)">
    <path id="alarm-2" data-name="alarm" d="M24.66,21.532A6.839,6.839,0,0,1,21.9,16.019V11.425a8.435,8.435,0,0,0-6.124-8.1,9.528,9.528,0,0,0-2.3-.331,9.528,9.528,0,0,0-2.3.331,8.437,8.437,0,0,0-6.124,8.1v4.593a6.841,6.841,0,0,1-2.756,5.514.766.766,0,0,0,.459,1.378H9.732a3.877,3.877,0,0,0-.078.766,3.828,3.828,0,1,0,7.656,0,3.887,3.887,0,0,0-.077-.766H24.2a.766.766,0,0,0,.459-1.378Zm-8.88,2.142a2.3,2.3,0,1,1-4.462-.766h4.33a2.319,2.319,0,0,1,.132.766Zm-11.113-2.3a8.522,8.522,0,0,0,1.009-1.533,8.322,8.322,0,0,0,.917-3.826V11.425a6.89,6.89,0,1,1,13.78,0v4.593a8.341,8.341,0,0,0,.917,3.826A8.468,8.468,0,0,0,22.3,21.378H4.666Z" transform="translate(-2 -2.992)" fill="#fff" stroke="#fff" stroke-width="0.5"/>
  </g>
</svg>
