<svg id="Capture_d_écran__le_2023-11-18_à_18.13.00-removebg-preview" xmlns="http://www.w3.org/2000/svg" width="22.17" height="23" viewBox="0 0 22.17 23">
  <path id="Path_1154" data-name="Path 1154" d="M0,0H2.074V23H0Z" transform="translate(12.491)" fill="#fff"/>
  <path id="Path_1155" data-name="Path 1155" d="M-1.085,0H.989V15.487H-1.085a1.091,1.091,0,0,1-.052-.392v-.339q0-.094,0-.188,0-.259,0-.519,0-.279,0-.559,0-.548,0-1.1,0-.445,0-.89v-.128q0-.128,0-.257,0-1.205,0-2.411,0-1.035,0-2.07,0-1.2,0-2.4,0-.128,0-.256V3.855q0-.445,0-.889,0-.541,0-1.083,0-.276,0-.553,0-.253,0-.506,0-.135,0-.271v-.3A.641.641,0,0,1-1.085,0Z" transform="translate(9.659 3.733)" fill="#fff"/>
  <path id="Path_1156" data-name="Path 1156" d="M-1.085,0,.989.046V15.533H-1.085c-.039-1.709-.053-3.416-.052-5.125q0-.373,0-.747V9.333q0-1.015,0-2.03,0-.87,0-1.74,0-1.018,0-2.036V3.2q0-.374,0-.749,0-.454,0-.907,0-.231,0-.462,0-.25,0-.5v-.4A.322.322,0,0,1-1.085,0Z" transform="translate(21.182 3.687)" fill="#fff"/>
  <path id="Path_1157" data-name="Path 1157" d="M-6.155,0h1.064l.684,0A1.226,1.226,0,0,1-4.3.6v.11c0,.121,0,.243,0,.364q0,.131,0,.261,0,.355,0,.71,0,.372,0,.744,0,.625,0,1.251,0,.721,0,1.442,0,.769,0,1.539,0,.221,0,.441,0,.348,0,.7,0,.127,0,.254c0,.473-.011.94-.053,1.411a1.64,1.64,0,0,1-.54.054H-5.27l-.382,0H-6.01a.624.624,0,0,1-.424-.1,3.234,3.234,0,0,1-.017-.38V9.274c0-.134,0-.268,0-.4q0-.144,0-.287,0-.391,0-.782,0-.408,0-.817,0-.774,0-1.548,0-.881,0-1.762,0-1.813.007-3.625A.509.509,0,0,1-6.155,0Z" transform="translate(22.705 6.541)" fill="#fff"/>
  <path id="Path_1158" data-name="Path 1158" d="M-5.787-.009h1.45c.293,0,.293,0,.344.052,0,.126.006.251.006.377V.54q0,.2,0,.4,0,.144,0,.289,0,.393,0,.787,0,.411,0,.821,0,.778,0,1.556,0,.886,0,1.771,0,1.822,0,3.645a2.071,2.071,0,0,1-.581.052H-5.65a1.236,1.236,0,0,1-.416-.052V.043A.513.513,0,0,1-5.787-.009Z" transform="translate(10.814 6.548)" fill="#fff"/>
  <path id="Path_1159" data-name="Path 1159" d="M-10.486-.006H-9.47a1.737,1.737,0,0,1,.506.052.614.614,0,0,1,.052.323V.852q0,.233,0,.466t0,.487q0,.409,0,.817,0,.473,0,.946,0,.406,0,.811,0,.242,0,.485,0,.27,0,.54v.311c0,.043,0,.085,0,.129a.332.332,0,0,1-.052.194,1.379,1.379,0,0,1-.5.052H-10.4c-.2-.007-.394-.03-.59-.052V.046A1.507,1.507,0,0,1-10.486-.006Z" transform="translate(11.96 8.435)" fill="#fff"/>
  <path id="Path_1160" data-name="Path 1160" d="M-5.787-.009h1.45c.293,0,.293,0,.344.052,0,.126.006.251.006.377V.54q0,.2,0,.4,0,.144,0,.289,0,.393,0,.787,0,.411,0,.821,0,.778,0,1.556,0,.886,0,1.771,0,1.822,0,3.645a2.071,2.071,0,0,1-.581.052H-5.65a1.236,1.236,0,0,1-.416-.052V.043A.513.513,0,0,1-5.787-.009Zm-.1.19V9.63h1.705V.181Z" transform="translate(10.814 6.548)" fill="#fff"/>
  <path id="Path_1161" data-name="Path 1161" d="M0,0H.184V23H0Z" transform="translate(14.381)" fill="#fff"/>
  <path id="Path_1162" data-name="Path 1162" d="M-6.155,0h1.064l.684,0A1.226,1.226,0,0,1-4.3.6v.11c0,.121,0,.243,0,.364q0,.131,0,.261,0,.355,0,.71,0,.372,0,.744,0,.625,0,1.251,0,.721,0,1.442,0,.769,0,1.539,0,.221,0,.441,0,.348,0,.7,0,.127,0,.254c0,.473-.011.94-.053,1.411a1.64,1.64,0,0,1-.54.054H-5.27l-.382,0H-6.01a.624.624,0,0,1-.424-.1,3.234,3.234,0,0,1-.017-.38V9.274c0-.134,0-.268,0-.4q0-.144,0-.287,0-.391,0-.782,0-.408,0-.817,0-.774,0-1.548,0-.881,0-1.762,0-1.813.007-3.625A.509.509,0,0,1-6.155,0Zm-.1.19V9.683H-4.5V.188Z" transform="translate(22.705 6.541)" fill="#fff"/>
  <path id="Path_1163" data-name="Path 1163" d="M-1.085,0h.138V15.441H.943V0H.989V15.487H-1.085a1.091,1.091,0,0,1-.052-.392v-.339q0-.094,0-.188,0-.259,0-.519,0-.279,0-.559,0-.548,0-1.1,0-.445,0-.89v-.128q0-.128,0-.257,0-1.205,0-2.411,0-1.035,0-2.07,0-1.2,0-2.4,0-.128,0-.256V3.855q0-.445,0-.889,0-.541,0-1.083,0-.276,0-.553,0-.253,0-.506,0-.135,0-.271v-.3A.641.641,0,0,1-1.085,0Z" transform="translate(9.659 3.733)" fill="#fff"/>
  <path id="Path_1164" data-name="Path 1164" d="M-1.085,0h.138V15.487H.943V.046H.989V15.533H-1.085c-.039-1.709-.053-3.416-.052-5.125q0-.373,0-.747V9.333q0-1.015,0-2.03,0-.87,0-1.74,0-1.018,0-2.036V3.2q0-.374,0-.749,0-.454,0-.907,0-.231,0-.462,0-.25,0-.5v-.4A.322.322,0,0,1-1.085,0Z" transform="translate(21.182 3.687)" fill="#fff"/>
  <path id="Path_1165" data-name="Path 1165" d="M0,0H.138V23H0Z" transform="translate(12.491)" fill="#fff"/>
  <path id="Path_1166" data-name="Path 1166" d="M0,0H1.89V15.21H1.752V.184H0Z" transform="translate(8.711 3.733)" fill="#fff"/>
  <path id="Path_1167" data-name="Path 1167" d="M0,0H.138V14.934H0Z" transform="translate(21.986 4.01)" fill="#fff"/>
  <path id="Path_1168" data-name="Path 1168" d="M-5.787-.009h1.45c.293,0,.293,0,.344.052,0,.126.006.251.006.377V.54q0,.2,0,.4,0,.144,0,.289,0,.393,0,.787,0,.411,0,.821,0,.778,0,1.556,0,.886,0,1.771,0,1.822,0,3.645a2.071,2.071,0,0,1-.581.052H-5.65a1.236,1.236,0,0,1-.416-.052V.043A.513.513,0,0,1-5.787-.009Zm-.234.19V9.676h1.982V.181Z" transform="translate(10.814 6.548)" fill="#fff"/>
  <path id="Path_1169" data-name="Path 1169" d="M-10.486-.006H-9.47a1.737,1.737,0,0,1,.506.052.614.614,0,0,1,.052.323V.852q0,.233,0,.466t0,.487q0,.409,0,.817,0,.473,0,.946,0,.406,0,.811,0,.242,0,.485,0,.27,0,.54v.311c0,.043,0,.085,0,.129a.332.332,0,0,1-.052.194,1.379,1.379,0,0,1-.5.052h-.578a6.764,6.764,0,0,1-.95-.052V5.9h1.936V.185h-1.936V.046A1.507,1.507,0,0,1-10.486-.006Z" transform="translate(11.96 8.435)" fill="#fff"/>
  <path id="Path_1170" data-name="Path 1170" d="M0,0H.138V9.495H0Z" transform="translate(16.317 6.729)" fill="#fff"/>
  <path id="Path_1171" data-name="Path 1171" d="M0,0H1.89V.184H.046V15.3H1.89v.138H0Z" transform="translate(20.234 3.733)" fill="#fff"/>
  <path id="Path_1172" data-name="Path 1172" d="M-6.155,0h1.064l.684,0,.092.23L-6.389.188V9.683h.138v.138H-4.5v.046l-.76.005-.259,0-.372,0h-.117c-.274,0-.274,0-.428-.1a3.234,3.234,0,0,1-.017-.38V9.274c0-.134,0-.268,0-.4q0-.144,0-.287,0-.391,0-.782,0-.408,0-.817,0-.774,0-1.548,0-.881,0-1.762,0-1.813.007-3.625A.509.509,0,0,1-6.155,0Z" transform="translate(22.705 6.541)" fill="#fff"/>
  <path id="Path_1173" data-name="Path 1173" d="M0,0H1.936V9.633H1.89V.138H0Z" transform="translate(4.886 6.591)" fill="#fff"/>
  <path id="Path_1174" data-name="Path 1174" d="M-1.077,0h.138V.184h-.138V8.8h-.046q0-1.7,0-3.4,0-.79,0-1.58,0-.688,0-1.377,0-.365,0-.729,0-.343,0-.686,0-.126,0-.252,0-.172,0-.343v-.1C-1.128.1-1.128.1-1.077,0Z" transform="translate(21.173 3.687)" fill="#fff"/>
  <path id="Path_1175" data-name="Path 1175" d="M0,0H.046V7.882H0Z" transform="translate(0 7.375)" fill="#fff"/>
  <path id="Path_1176" data-name="Path 1176" d="M0,0H1.936V.138A2.051,2.051,0,0,1,1.35.189H.614L0,.184Z" transform="translate(4.886 16.224)" fill="#fff"/>
  <path id="Path_1177" data-name="Path 1177" d="M-10.553-.006H-9.53a1.194,1.194,0,0,1,.4.052V.185h-1.936V.046A1.518,1.518,0,0,1-10.553-.006Z" transform="translate(12.03 8.435)" fill="#fff"/>
  <path id="Path_1178" data-name="Path 1178" d="M0,0H1.89V.138H0Z" transform="translate(16.455 16.224)" fill="#fff"/>
  <path id="Path_1179" data-name="Path 1179" d="M0,0H1.89V.138H0Z" transform="translate(20.234 3.733)" fill="#fff"/>
  <path id="Path_1180" data-name="Path 1180" d="M0,0H1.89V.138H0Z" transform="translate(8.711 3.733)" fill="#fff"/>
  <path id="Path_1181" data-name="Path 1181" d="M0,0H1.752V.138H0Z" transform="translate(16.455 6.591)" fill="#fff"/>
  <path id="Path_1182" data-name="Path 1182" d="M0,0H1.936l.092.23L1.844.184V.046H0Z" transform="translate(16.363 6.545)" fill="#fff"/>
  <path id="Path_1183" data-name="Path 1183" d="M-36.248,0h.138V.138H-38V.092h1.752Z" transform="translate(54.455 16.224)" fill="#fff"/>
  <path id="Path_1184" data-name="Path 1184" d="M0,0H1.89V.138H1.752V.046H0Z" transform="translate(20.234 3.733)" fill="#fff"/>
  <path id="Path_1185" data-name="Path 1185" d="M0,0H1.89V.138H1.752V.046H0Z" transform="translate(8.711 3.733)" fill="#fff"/>
</svg>
