<svg xmlns="http://www.w3.org/2000/svg" width="23" height="23" viewBox="0 0 23 23">
  <g id="Group_5" data-name="Group 5" transform="translate(-67.893 -1248)">
    <g id="Capture_d_écran__le_2023-11-18_à_18.10.49-removebg-preview" transform="translate(67.893 1248)">
      <path id="Path_769" data-name="Path 769" d="M0-.117l2.589,0H6.515c.109.006.109.006.155.052,0,.07,0,.14,0,.21V.254l0,.089h.138V.987h.138V1.4h.138v.276h.138c.138.259.138.259.138.414h.092l.046.276H7.59l.046.23h.092l.046.276h.092l.017.112.029.118L8,3.149l.046.138.092.092v.184H8.28v.276h.138v.276h.138l.017.112.029.118.092.046v.23h.138V4.9H8.97v.184h.138v.23l.138.046v.23h.138v.276h.138v.276H9.66c.138.259.138.259.138.414H9.89l.046.276h.092l.046.23h.092l.046.276H10.3v.276h.138v.184h.138v.23h.138V8.3h.276v.138h.782V8.3h.276l-.006-.132c.006-.144.006-.144.1-.236q.072-.16.138-.322h.138v-.23l.138-.046V7.1l.138-.046v-.23l.138-.046v-.23h.138V6.277h.138V6h.138v-.23l.092-.046.046-.138h.138V5.311h.138V5.035H13.8V4.759h.138V4.483h.138v-.23h.138V3.977h.138V3.7h.092l.017-.129a.528.528,0,0,1,.121-.285h.138V3.011h.138v-.23L15,2.735V2.5l.138-.046v-.23l.092-.046a1.356,1.356,0,0,0,.046-.23h.138V1.677h.138v-.23l.138-.046v-.23l.138-.046V.711h.138V.067l.092-.046L16.1-.117h6.67v.6h-.138V.849l-.138.046v.23l-.138.046v.138h-.138v.276H22.08v.138h-.138v.138H21.8v.23h-.138v.138l-.23.046-.046.138H21.3V2.5H21.16v.138h-.138v.138h-.138v.138h-.138v.138h-.138v.138H20.47v.138h-.138v.138h-.138v.138h-.138v.138h-.138v.138H19.78v.138h-.138v.138H19.5V4.3h-.138v.138h-.092l-.046.138h-.092v.092H19V4.8H18.86v.138h-.138v.138h-.138v.138h-.138l-.046.138h-.092l-.046.138h-.138l-.046.138h-.184v.138h-.138v.138h-.138v.138H17.48v.138h-.138v.138H17.2v.138a.628.628,0,0,1-.138.138h-.092l-.046.138h-.092l-.046.138H16.7l-.046.138H16.56V7.1h-.138v.138h-.138v.138h-.138v.138h-.138v.138H15.87v.138h-.138v.138h-.138v.138h-.138v.138h-.138v.138H15.18v.138h-.138v.092a.628.628,0,0,1-.138.138h-.138v.138a.369.369,0,0,1-.262.17l-.106.014-.046.138H14.26l-.046.138h-.092V9.4h-.138v.138h-.138v.138h-.138v.138H13.57v.138h-.276v.138h-.276v.138h-.276v.138h-.414v.092h.736v.046H9.66v-.046l.736-.046-.414-.046v-.092l-.322-.046-.046-.138H9.476V9.957H9.2V9.819H9.062V9.681H8.924V9.543H8.786V9.4H8.648V9.313H8.51V9.175l-.1-.009C8.241,9.117,8.2,9.036,8.1,8.9L8,8.824c-.083-.063-.083-.063-.129-.2H7.728V8.485l-.086-.017a.307.307,0,0,1-.19-.121V8.209H7.314V8.071H7.176V7.933H7.038V7.795H6.9V7.657H6.762V7.519H6.624V7.381H6.486V7.243H6.348V7.1H6.21V7.013H6.072V6.875H5.934V6.737H5.8V6.6H5.658V6.461H5.52V6.323H5.382V6.185H5.244V6.093l-.092-.046V5.909H5.014V5.771H4.876V5.633H4.738V5.495H4.6V5.357H4.37l-.046-.138H4.186V5.081H4.048V4.943H3.91V4.8H3.772V4.667H3.634V4.575L3.5,4.529V4.437l-.138-.046V4.3L3.22,4.253V4.161l-.138-.046a1.738,1.738,0,0,1-.23-.23V3.747H2.714V3.609H2.576V3.471H2.438V3.333H2.3V3.195H2.162V3.057H2.024V2.919H1.886V2.781H1.748V2.643H1.61V2.5H1.472V2.413l-.138-.046V2.275H1.2V2.137l-.138-.046V2L.92,1.953V1.861L.782,1.815V1.723L.644,1.677V1.585H.552V1.309H.414L.368,1.171.276,1.079V.895H.138V.481H0Z" transform="translate(0.092 12.491)" fill="#fff"/>
      <path id="Path_770" data-name="Path 770" d="M-117.818-.009h2.483a.654.654,0,0,1,.263.052V.319h-.138V.595h-.138v.414h-.138v.276h-.092l-.046.414h-.092l-.046.368h-.092v.276h-.138v.414h-.138l-.046.414h-.092v.276h-.138v.368l-.138.046v.368l-.138.046,0,.106,0,.139,0,.137a.322.322,0,0,1-.066.207,1.135,1.135,0,0,1-.629.107h-3.623l-2.2,0h-.3q0-.124-.006-.247l0-.139c.009-.12.009-.12.1-.212.018-.091.034-.184.046-.276h.138V3.815h.138V3.539h.138V3.4l.092-.046V3.263h.138l.046-.276h.092l.046-.138h.092V2.711h.138l.046-.23h.092l.046-.184h.092l.046-.138h.092V2.021h.138l.046-.23h.092l.046-.138h.092l.046-.138h.23V1.377h.138V1.239h.138V1.1h.138V.963l.112-.017.118-.029.046-.092a.563.563,0,0,1,.414-.138V.595l.132-.04a.325.325,0,0,0,.236-.144,2.208,2.208,0,0,1,.276,0l.046-.138h.368V.181A1.157,1.157,0,0,1-118.6.132h.151l.116,0V.043A2.214,2.214,0,0,1-117.818-.009Z" transform="translate(123.582 5.615)" fill="#fff"/>
      <path id="Path_771" data-name="Path 771" d="M-7.756-.017h2.573a1.2,1.2,0,0,1,.319.052V.127h.644l.046.138h.368L-3.76.4l.132,0a.37.37,0,0,1,.236.049V.541h.276V.679l.276.046V.817H-2.7V.955h.276v.138h.138v.138h.138v.138h.23v.138h.184v.138H-1.6v.138h.092l.046.23.138.046v.092l.138.046v.092l.138.046v.138h.092l.046.23.138.046q.071.114.138.23l.092.046v.23H-.4v.138h.138v.276h.138v.138H.012v.276H.15v.368L.288,4.5v.414a1.1,1.1,0,0,1-.393.052H-5.757a2.1,2.1,0,0,1-.763-.1v-.6l-.138-.046-.027-.283L-6.7,3.853-6.8,3.807V3.439h-.138V3.025h-.138V2.749h-.092a.818.818,0,0,1-.046-.414h-.138V1.967l-.138-.046L-7.5,1.815a.411.411,0,0,0-.121-.262,2.205,2.205,0,0,1,0-.276l-.138-.046L-7.78,1.1C-7.8.951-7.8.951-7.9.863a2.208,2.208,0,0,1,0-.276h-.092L-8.038.311H-8.13V.035A.741.741,0,0,1-7.756-.017Z" transform="translate(22.574 5.623)" fill="#fff"/>
      <path id="Path_772" data-name="Path 772" d="M-39.1,0H-37.8l.766,0,.046.276h.092l.046.276h.092V.972h.138l.043.155a.789.789,0,0,0,.095.259c0,.092,0,.184,0,.276h.138l.027.283.019.085.092.046v.276h.138V2.72l.138.046v.368h.138V3.41l.138.046v.368h.138l.017.129a.4.4,0,0,0,.121.285,2.206,2.206,0,0,1,0,.276h.092q.013.1.026.2l.015.113a.255.255,0,0,1-.04.192L-35.388,5a4.778,4.778,0,0,0-.665-.03h-4.26a1.129,1.129,0,0,0-.58.1.536.536,0,0,1-.092-.414l.138-.046V4.238h.138V3.824h.138V3.548h.138V3.134h.138V2.766l.138-.046V2.444h.138V2.076l.092-.046a.757.757,0,0,0,.029-.187l.017-.181h.138V1.386h.092l.046-.414h.092L-39.467.6h.092V.328l.138-.046,0-.112C-39.236.008-39.236.008-39.1,0Z" transform="translate(49.587 5.606)" fill="#fff"/>
      <path id="Path_773" data-name="Path 773" d="M-118.3,0h.138a.99.99,0,0,1,.055.348l0,.109c-.011.095-.011.095-.1.187-.033.107-.064.214-.092.322h-.092V1.2l-.138.046-.017.129a.528.528,0,0,1-.121.285h-.138v.276h-.138v.276h-.138v.23l-.092.046a1.356,1.356,0,0,0-.046.23h-.138V2.99h-.138v.276h-.138v.276h-.138l.006.109c-.006.121-.006.121-.1.213l-.046.092H-120v.23l-.138.046v.23l-.138.046v.23l-.138.046v.23h-.138V5.29h-.138v.23l-.138.046v.276h-.322V5.566h-.138V5.29h-.138l-.017-.112-.029-.118-.092-.046V4.876h-.138V4.6h-.138V4.37l-.138-.046v-.23l-.138-.046v-.23h-.138V3.542h-.138V3.4h-.092l-.046-.276h-.092V2.852h-.138v-.23l-.138-.046v-.23h-.138V2.07h-.138l-.017-.089-.029-.095-.092-.046V1.656l-.138-.046V1.38h-.138V1.1h-.138V.828h-.138V.414h-.092A1.974,1.974,0,0,1-124,.138c.092-.092.092-.092.191-.1h1.515l.892,0,1.016,0,2.09,0Z" transform="translate(132.464 12.282)" fill="#fff"/>
      <path id="Path_774" data-name="Path 774" d="M-11.448,0h.966V.092h.276a1.206,1.206,0,0,1,.138.414h.138V.782h.138v.23l.138.046.017.112.029.118.092.046v.23l.138.046v.23l.138.046v.23h.092l.046.276h.092a1.415,1.415,0,0,1,.049.492v.1q0,.119,0,.239l-.138.046V3.5H-9.24v.138h-.138v.138h-.276V3.91h-.736V3.772h-.276V3.634H-10.8V3.5H-10.9l-.046-.23-.138-.046V2.99h-.092l-.046-.276h-.092l-.046-.276h-.092V2.162h-.138V1.886h-.138V1.61h-.138V1.334H-12V.506h.138V.368h.138l0-.112c0-.118,0-.118.049-.164q.115,0,.23,0Z" transform="translate(16.692)" fill="#fff"/>
      <path id="Path_775" data-name="Path 775" d="M-31.482,0h.966V.092h.276A1.206,1.206,0,0,1-30.1.506h.138v.828H-30.1V1.61h-.138v.276h-.138v.276h-.138v.276h-.138v.276h-.138V2.99h-.138l.006.132c-.006.144-.006.144-.1.236l-.046.138-.092.046v.092h-.184v.138l-.23.046V3.91h-.736V3.772h-.276V3.634h-.138V3.5h-.138v-.23L-33,3.22V2.438l.138-.046V2.116h.138v-.23l.138-.046V1.61l.138-.046v-.23l.092-.046c.033-.091.064-.183.092-.276h.046l.046-.23h.138V.506h.138V.368h.138V.092h.276Z" transform="translate(48.226)" fill="#fff"/>
      <path id="Path_776" data-name="Path 776" d="M-11.581,0h1.15V.092h.138V.23h.138V.368h.092l.046.414h.092q0,.488.005.975,0,.166,0,.332,0,.238,0,.476v.15c0,.069,0,.069,0,.14v.123c-.011.1-.011.1-.1.242l-.023.095c-.023.089-.023.089-.115.181h-.138v.138h-.138v.138h-.276V3.91h-.6V3.772h-.276V3.634h-.138V3.5h-.138V3.4l-.138-.046V3.082h-.092a2.583,2.583,0,0,1-.052-.667V2.288q0-.133,0-.266,0-.2,0-.406,0-.129,0-.259V1.235A2.146,2.146,0,0,1-12.087.69h.046l.046-.322h.138V.23h.138V.092h.138Z" transform="translate(22.483)" fill="#fff"/>
      <path id="Path_777" data-name="Path 777" d="M0-.117l2.589,0H6.515c.109.006.109.006.155.052,0,.07,0,.14,0,.21V.254l0,.089h.138V.987h.138V1.4h.138v.276h.138a.338.338,0,0,1,.092.276H7.176V1.815H7.038V1.539H6.9v-.23H6.762V.757H6.67L6.624.343H6.486V.067H.138V.481H0Z" transform="translate(0.092 12.491)" fill="#fff"/>
      <path id="Path_778" data-name="Path 778" d="M-118.3,0h.138a.99.99,0,0,1,.055.348l0,.109c-.011.095-.011.095-.1.187-.033.107-.064.214-.092.322h-.092l-.046.138V.828h.138V.276h-5.474l-.046.276h.092l.046.414h.138V1.1h.138v.23h.138v.414l.092.046-.046.092-.092-.046V1.656l-.138-.046V1.38h-.138V1.1h-.138V.828h-.138V.414h-.092A1.974,1.974,0,0,1-124,.138c.092-.092.092-.092.191-.1h1.515l.892,0,1.016,0,2.09,0Z" transform="translate(132.464 12.282)" fill="#fff"/>
      <path id="Path_779" data-name="Path 779" d="M-7.756-.017h2.573a1.2,1.2,0,0,1,.319.052V.127h.644l.046.138h.368L-3.76.4l.132,0a.37.37,0,0,1,.236.049V.541h.276V.679l.276.046V.817H-2.7V.955H-2.84V.863h-.276V.725h-.138V.587h-.414V.449h-.276V.311h-.644V.173h-3.4V.311h.138V.725h.138v.368h.138v.276h.138v.414H-7.3V2.2h.138v.276h.138v.414h.092v.138h-.138V2.749h-.092a.818.818,0,0,1-.046-.414h-.138V1.967l-.138-.046L-7.5,1.815a.411.411,0,0,0-.121-.262,2.205,2.205,0,0,1,0-.276l-.138-.046L-7.78,1.1C-7.8.951-7.8.951-7.9.863a2.208,2.208,0,0,1,0-.276h-.092L-8.038.311H-8.13V.035A.741.741,0,0,1-7.756-.017Z" transform="translate(22.574 5.623)" fill="#fff"/>
      <path id="Path_780" data-name="Path 780" d="M-160.458,0h.138V.184h-.092l-.046.368h-.092V.828h-.138v.414h-.138l-.046.414h-.092v.276h-.138V2.3l-.138.046v.368l-.138.046,0,.106,0,.139,0,.137a.322.322,0,0,1-.066.207,1.135,1.135,0,0,1-.629.107h-3.623l-2.2,0h-.3q0-.124-.006-.247l0-.139c.009-.12.009-.12.1-.212.018-.091.034-.184.046-.276h.138V2.3h.138V2.024h.138V1.886h.138V2.07h-.092V2.3h-.138v.276h-.138v.276H-168l-.046.276h-.092v.23h6.578V2.852h.138l.046-.276h.092V2.162h.138l0-.132a.37.37,0,0,1,.049-.236h.092V1.38h.138V1.1h.138V.69h.138V.276h.138Z" transform="translate(168.278 7.13)" fill="#fff"/>
      <path id="Path_781" data-name="Path 781" d="M-56.575-.009h2.483a.654.654,0,0,1,.263.052V.319h-.138V.181h-3.4V.319h-.552V.411a.7.7,0,0,1-.368.046V.595h-.414V.733h-.138V.871h-.276V.963L-59.3.917a.5.5,0,0,1,.276-.23h.184V.595l.132-.04a.325.325,0,0,0,.236-.144,2.208,2.208,0,0,1,.276,0l.046-.138h.368V.181a1.157,1.157,0,0,1,.423-.049h.151l.116,0V.043A2.214,2.214,0,0,1-56.575-.009Z" transform="translate(62.339 5.615)" fill="#fff"/>
      <path id="Path_782" data-name="Path 782" d="M-5.724,0H.946V.6H.808V.46H.9V.092H-5.54V.184h-.138v.69L-5.724.736h-.092v.276h-.138L-6,1.15V.828h.138V.184L-5.77.138Z" transform="translate(21.916 12.374)" fill="#fff"/>
      <path id="Path_783" data-name="Path 783" d="M-17.253,0h.138V.322h-.092L-17.253.6h-.092v.414h-.138v.23h-.138l-.046.414h-.092V2.07H-17.9v.368h5.382V1.932h-.092l.046-.276a.536.536,0,0,1,.092.414h.092q.013.1.026.2l.015.113a.255.255,0,0,1-.04.192l-.107-.023a4.778,4.778,0,0,0-.665-.03h-4.26a1.129,1.129,0,0,0-.58.1.536.536,0,0,1-.092-.414l.138-.046V1.794h.138V1.38h.138V1.1h.138V.69h.138V.322l.138-.046Z" transform="translate(26.683 8.05)" fill="#fff"/>
      <path id="Path_784" data-name="Path 784" d="M-193.662,0h.046V6.762H-203V6.716h9.338Z" transform="translate(216.616 16.238)" fill="#fff"/>
      <path id="Path_785" data-name="Path 785" d="M0,0H.138L.184.414H.322V.828H.46v.506H6.9V.828H6.808L6.762.552H6.624V.276H6.532V.138H6.67V.276h.138V.552h.138V.92l.138.046V1.38a1.1,1.1,0,0,1-.393.052H1.039a2.1,2.1,0,0,1-.763-.1v-.6L.138.69.111.407.092.322,0,.276Z" transform="translate(15.778 9.154)" fill="#fff"/>
      <path id="Path_786" data-name="Path 786" d="M-1.908,0h.046V.276h6.44V.368H-2V.138h.092Z" transform="translate(2.138 10.12)" fill="#fff"/>
      <path id="Path_787" data-name="Path 787" d="M-20.034,0h.138V.276h-.092l-.046.276h-.092l-.046.276h-.092V1.1H-20.4v.138h-.138v.276h-.138v.23h-.138v.276h-.138v.552h.138v.276h.138V2.99h.138v.138h.138V3.22h.782V3.128h.276v.138l-.23.046V3.4h-.736V3.266h-.276V3.128h-.138V2.99h-.138V2.76L-21,2.714V1.932l.138-.046V1.61h.138V1.38l.138-.046V1.1l.138-.046V.828l.092-.046c.033-.091.064-.183.092-.276h.046l.046-.23h.138Z" transform="translate(36.226 0.506)" fill="#fff"/>
      <path id="Path_788" data-name="Path 788" d="M0-.117l2.589,0H6.515c.109.006.109.006.155.052,0,.07,0,.14,0,.21V.254l0,.089h.138V.987h.138V1.4h.138v.276h.138a.338.338,0,0,1,.092.276H7.176V1.815H7.038V1.539H6.9v-.23H6.762V.757H6.67a3.047,3.047,0,0,1-.046-.69H6.532V-.071H.046V.2H.138V.481H0Z" transform="translate(0.092 12.491)" fill="#fff"/>
      <path id="Path_789" data-name="Path 789" d="M0,0H.138V.138H.276v.23H.414V.644H.552V.92H.69V1.2H.828v.276H.966V1.61H1.1v.276h.138v.276H1.38v.23h.23v-.23h.138V1.886h.138V1.61h.138V1.334h.138V1.058H2.3V.782h.138V.644H2.53L2.576.552V.69H2.484V.92L2.346.966V1.2l-.138.046v.23l-.138.046v.23H1.932v.276H1.794v.23L1.656,2.3v.276H1.334V2.3H1.2V2.024H1.058l-.017-.112-.029-.118L.92,1.748V1.61H.782V1.334H.644V1.1L.506,1.058V.828L.368.782V.552H.23V.276H.092V.138H0Z" transform="translate(9.982 15.548)" fill="#fff"/>
      <path id="Path_790" data-name="Path 790" d="M-66.78,0l.046.138h-.138V.276h-.138V.414h-.138V.552h-.138V.69h-.138V.828h-.138V.966H-67.7V1.1h-.138v.138h-.138V1.38h-.138v.138h-.138v.138h-.138v.138h-.138v.138h-.092l-.046.138h-.092v.092H-68.9V2.3h-.138v.138h-.138v.138h-.138v.138h-.138l-.046.138h-.092l-.046.138h-.138l-.046.138L-70,3.082h.092l.046-.138h.092V2.806h.138V2.714h.138V2.576h.138V2.438h.138V2.3h.138V2.162h.138V2.024h.138V1.886h.138V1.748h.138V1.61h.138V1.472h.138V1.334h.138V1.2h.138V1.058h.138V.92h.092L-67.7.782h.092V.69h.138V.506h.184V.414l.23-.046V.138l.276-.046Z" transform="translate(87.986 14.996)" fill="#fff"/>
      <path id="Path_791" data-name="Path 791" d="M-11.581,0h.184V.092h-.138V.23h-.138V.368h-.138V.506h-.138V3.22h.138V3.5l-.046-.092-.138-.046V3.082h-.092a2.583,2.583,0,0,1-.052-.667V2.288q0-.133,0-.266,0-.2,0-.406,0-.129,0-.259V1.235A2.146,2.146,0,0,1-12.087.69h.046l.046-.322h.138V.23h.138V.092h.138Z" transform="translate(22.483)" fill="#fff"/>
      <path id="Path_792" data-name="Path 792" d="M-118.3,0h.138V.138h-5.658V.552h.092l.046.414h.138V1.1h.138v.23h.138v.414l.092.046-.046.092-.092-.046V1.656l-.138-.046V1.38h-.138V1.1h-.138V.828h-.138V.414h-.092A1.974,1.974,0,0,1-124,.138c.092-.092.092-.092.191-.1h1.515l.892,0,1.016,0,2.09,0Z" transform="translate(132.464 12.282)" fill="#fff"/>
      <path id="Path_793" data-name="Path 793" d="M-7.541,0h1.308l.766,0,.046.276h.092V.466h-.138V.19H-7.629V.466h-.138V.742H-7.9V.6h.092V.328l.138-.046,0-.112C-7.674.008-7.674.008-7.541,0Z" transform="translate(18.025 5.606)" fill="#fff"/>
      <path id="Path_794" data-name="Path 794" d="M0,0H2.99V.276H2.852V.138H0Z" transform="translate(5.52 5.658)" fill="#fff"/>
      <path id="Path_795" data-name="Path 795" d="M0,0H8.878V.046H0Z" transform="translate(0.46 22.954)" fill="#fff"/>
      <path id="Path_796" data-name="Path 796" d="M0,0H2.852V.092L2.99.138H0Z" transform="translate(14.582 5.658)" fill="#fff"/>
      <path id="Path_797" data-name="Path 797" d="M0,0H5.7V.414L5.612.506C5.579.613,5.548.72,5.52.828H5.428L5.382.966V.69H5.52V.046H0Z" transform="translate(8.648 12.42)" fill="#fff"/>
      <path id="Path_798" data-name="Path 798" d="M-41.022,0l.046.138h-.138V.276h-.138V.414h-.138V.552h-.138V.69h-.138V.828A.628.628,0,0,1-41.8.966H-41.9l-.046.138h-.092l-.046.138h-.092l-.046.138h-.092v.092h-.138V1.61h-.138v.138h-.138v.138h-.138v.138H-43V1.886h.092V1.748h.138V1.61h.138V1.472h.138V1.334h.138V1.2h.138V1.058h.138V.92h.138V.782h.138V.644h.138V.506h.138V.368h.138V.23h.138V.092h.23Z" transform="translate(58.962 18.124)" fill="#fff"/>
      <path id="Path_799" data-name="Path 799" d="M-30.528,0h.138V.138h-.092V.46h-.138L-30.666.6h-.092v.23H-30.9V1.1h-.138V1.38h-.138v.276h-.138v.276h-.138v.276h-.138v.138h-.138V2.76h-.092l-.046.138L-32,2.852c0-.138,0-.138.092-.23q.072-.16.138-.322h.138V2.07l.138-.046v-.23l.138-.046v-.23l.138-.046v-.23h.138V.966h.138V.69h.138V.46l.092-.046.046-.138h.138Z" transform="translate(44.144 17.802)" fill="#fff"/>
      <path id="Path_800" data-name="Path 800" d="M-21.942,0h.138V.184H-21.9l-.046.368h-.092V.828h-.138v.414h-.138l-.046.414h-.092v.276h-.138V2.3l-.138.046v.368l-.138.046v.506H-23V2.99h.092l.046-.414h.092V2.162h.138l0-.132a.37.37,0,0,1,.049-.236h.092V1.38h.138V1.1h.138V.69h.138V.276h.138Z" transform="translate(29.762 7.13)" fill="#fff"/>
      <path id="Path_801" data-name="Path 801" d="M0,0H6.67V.6H6.532V.46h.092V.046H0Z" transform="translate(16.192 12.374)" fill="#fff"/>
      <path id="Path_802" data-name="Path 802" d="M0,0H6.486V.138h.092V.414H6.44V.046H0Z" transform="translate(0.138 12.42)" fill="#fff"/>
      <path id="Path_803" data-name="Path 803" d="M0,0,.138.046v.23H.276V.552H.414V.736H.552v.23l.138.046v.23H.828v.276H.966v.276H1.1c.138.259.138.259.138.414h.092v.138H1.2V2.208H1.058V1.932H.92V1.656H.782v-.23H.644V1.15H.506V1.012H.368V.736H.23V.46H.092V.184H0Z" transform="translate(8.648 16.836)" fill="#fff"/>
      <path id="Path_804" data-name="Path 804" d="M0,0H.046V.276H.138q.005.488.008.975,0,.166,0,.332,0,.238,0,.476l0,.15v.262c-.017.1-.017.1-.155.242Z" transform="translate(12.42 0.506)" fill="#fff"/>
      <path id="Path_805" data-name="Path 805" d="M-9.54,0c.092.092.092.092.092.23h.138v.828h-.138v.276h-.138V1.61h-.138v.276h-.138v.276H-10V1.978h.092V1.61h.138V1.334h.138V1.2h.138V.138L-9.586.092Z" transform="translate(27.572 0.276)" fill="#fff"/>
      <path id="Path_806" data-name="Path 806" d="M0,0H.138V.092H.276V.23H.414V.368H.552V.506H.69V.644H.828V.782H.966V.92H1.1v.138h.138V1.2H1.38v.138h.138v.138H1.61V1.61H1.472V1.472H1.334V1.334H1.2V1.2H1.058V1.058H.92V.966L.782.92V.828L.644.782V.69L.506.644V.552L.368.506a1.738,1.738,0,0,1-.23-.23V.138H0Z" transform="translate(2.806 16.1)" fill="#fff"/>
      <path id="Path_807" data-name="Path 807" d="M0,0H.276V.092H.92L.966.23h.368L1.38.368l.132,0a.37.37,0,0,1,.236.049V.506h.276V.644L2.3.69V.782h.138V.92H2.3V.828H2.024V.69H1.886V.552H1.472V.414H1.2V.276H.552V.138L.466.14H.354l-.112,0A.6.6,0,0,1,0,.092Z" transform="translate(17.434 5.658)" fill="#fff"/>
      <path id="Path_808" data-name="Path 808" d="M-21.942,0h.138V.138H-21.9V.414h-.138V.69h-.138V.966h-.138v.276h-.138v.276h-.138v.276h-.092l-.046.23h-.138v.138H-23V2.024h.092l.017-.129a.528.528,0,0,1,.121-.285h.138V1.334h.138V1.1l.138-.046V.828l.138-.046V.552l.092-.046a1.357,1.357,0,0,0,.046-.23h.138Z" transform="translate(37.444 14.168)" fill="#fff"/>
      <path id="Path_809" data-name="Path 809" d="M-14.31,0h.138V.322h-.092L-14.31.6H-14.4v.414h-.138v.23h-.138l-.046.414h-.092V2.07H-15V1.794h.138V1.38h.138V1.1h.138V.69h.138V.322l.138-.046Z" transform="translate(23.74 8.05)" fill="#fff"/>
      <path id="Path_810" data-name="Path 810" d="M0,0H.138V.276H.276V.414H.414V.552H.552V.644h.782V.552H1.61V.69L1.38.736V.828H.644V.69H.368V.552H.23V.414H.092V.184H0Z" transform="translate(15.272 3.082)" fill="#fff"/>
      <path id="Path_811" data-name="Path 811" d="M0,0H.184V.092H.322V.23H.46V.368H.552Q.567.949.58,1.53q.006.27.013.54T.6,2.591q0,.1.005.2c0,.093,0,.185.006.278l0,.16A.253.253,0,0,1,.5,3.445L.414,3.5V3.082H.506V.69H.414V.368H.276V.23H.138V.092H0Z" transform="translate(11.868)" fill="#fff"/>
      <path id="Path_812" data-name="Path 812" d="M-29.574,0h.23l-.092.046.046.138h-.184V.276h-.138V.414h-.138V.552h-.138V.828h-.138V.966h-.138V1.1H-30.4v.138h-.138v.276h-.138v.138h-.138v.138L-31,1.84V1.748h.138l.046-.276h.092l.046-.138h.092V1.2h.138l.046-.23h.092l.046-.184h.092l.046-.138h.092V.506h.138l.046-.23h.092l.046-.138h.092Z" transform="translate(31.736 7.13)" fill="#fff"/>
      <path id="Path_813" data-name="Path 813" d="M-.954,0l.092.046V.23h.138V.506h.138v.23l.138.046.017.112.029.118.092.046v.23l.138.046v.23l.138.046v.23H.058v.138H-.08v-.23H-.218V1.472H-.356V1.2H-.494V.92H-.632V.644H-.77V.506H-.908V.23H-1Z" transform="translate(7.486 0.276)" fill="#fff"/>
      <path id="Path_814" data-name="Path 814" d="M-24.8,0l.092.092-.138.046v.23l-.138.046v.23l-.138.046V.92l-.138.046V1.2H-25.4v.276h-.138V1.7l-.138.046v.276H-26V1.886h.276V1.61h.138V1.334h.138V1.058h.138V.782h.138V.506h.138V.23h.138V.092h.092Z" transform="translate(37.316 16.1)" fill="#fff"/>
      <path id="Path_815" data-name="Path 815" d="M0,0H.138V.414H.276v.644H.414v.414H.552v.276H.69a.338.338,0,0,1,.092.276H.644V1.886H.506V1.61H.368V1.38H.23V.828H.138A3.047,3.047,0,0,1,.092.138H0Z" transform="translate(6.624 12.42)" fill="#fff"/>
      <path id="Path_816" data-name="Path 816" d="M-8.586,0l.046.138h.092A1.415,1.415,0,0,1-8.4.63v.1q0,.119,0,.239l-.138.046v.23h-.138V1.38h-.138v.138H-9V1.38h.138V1.242h.138V1.1h.138Z" transform="translate(16.13 2.254)" fill="#fff"/>
      <path id="Path_817" data-name="Path 817" d="M0,0H.138V.092H.322V.23H.414V.368H.552V.506H.69V.644H.828V.782H.966V.92H1.1v.138h.138V1.2H1.38v.138h.138l-.046.138V1.38H1.334V1.242l-.1-.009C1.065,1.184,1.021,1.1.92.966L.819.891C.736.828.736.828.69.69H.552V.552L.466.535A.307.307,0,0,1,.276.414V.276H.138V.138H0Z" transform="translate(7.268 20.424)" fill="#fff"/>
      <path id="Path_818" data-name="Path 818" d="M0,0H.046V.414H.138L.184.828H.322V.966H.46V1.2H.6V1.61l.092.046-.046.092L.552,1.7V1.518L.414,1.472v-.23H.276V.966H.138V.69H0Z" transform="translate(8.602 12.42)" fill="#fff"/>
      <path id="Path_819" data-name="Path 819" d="M-11.448,0h.138V.184H-11.4v.23h-.138V.69h-.138V.966h-.138l-.046.276H-12l.046-.276h.046l.046-.276h.138V.414h.138V.138h.138Z" transform="translate(12.092 9.016)" fill="#fff"/>
      <path id="Path_820" data-name="Path 820" d="M-2.862,0h.138V.138h-.092V.966h.092v.276h-.138V.966H-3V.138h.138Z" transform="translate(7.692 0.368)" fill="#fff"/>
      <path id="Path_821" data-name="Path 821" d="M-8.586,0H-8.4V.092H-8.54V.23h-.138V.368h-.138V.506h-.138V2.944H-9V.368h.138V.23h.138V.092h.138Z" transform="translate(19.488)" fill="#fff"/>
      <path id="Path_822" data-name="Path 822" d="M0,0H.138V.276H.276V.552H.414V.828H.552V1.1H.69v.138H.828V1.38H.966v.138H.782V1.38H.644V1.242H.552l-.046-.23L.368.966V.736H.276L.23.46H.138L.092.184H0Z" transform="translate(5.244 2.254)" fill="#fff"/>
      <path id="Path_823" data-name="Path 823" d="M-24.8,0l.046.138H-24.9V.276h-.138V.414h-.138V.552h-.138V.69h-.138V.828h-.138V.966h-.138V1.1h-.184V1.2H-26V1.058h.138V.92h.092l.046-.138h.092V.69h.138V.506h.184V.414l.23-.046V.138L-24.8.092Z" transform="translate(46.01 14.996)" fill="#fff"/>
      <path id="Path_824" data-name="Path 824" d="M-22.277,0h1.587l1.019,0V.051h-2.852V.189h-.828V.143h.552V.051A2.188,2.188,0,0,1-22.277,0Z" transform="translate(28.043 5.607)" fill="#fff"/>
      <path id="Path_825" data-name="Path 825" d="M0,0H.138L.184.414H.322V.828H.414V1.38L.276,1.334v-.6L.138.69.111.407.092.322,0,.276Z" transform="translate(15.778 9.154)" fill="#fff"/>
      <path id="Path_826" data-name="Path 826" d="M-7.541,0h1.308l.766,0V.052H-7.491V.19h-.138V.466h-.138V.742H-7.9V.6h.092V.328l.138-.046,0-.112C-7.674.008-7.674.008-7.541,0Z" transform="translate(18.025 5.606)" fill="#fff"/>
      <path id="Path_827" data-name="Path 827" d="M-7.817-.025H-6.17l1.058,0V.026H-8.056V.44L-8.1.3h-.092V.026A.744.744,0,0,1-7.817-.025Z" transform="translate(22.638 5.632)" fill="#fff"/>
      <path id="Path_828" data-name="Path 828" d="M-13.356,0l.184.046-.046.092h-.092l-.017.129a.528.528,0,0,1-.121.285h-.138V.828h-.138V1.1h-.138v.23L-14,1.38V1.2h.092V.92h.138l.046-.276h.092V.368h.138V.23h.138Z" transform="translate(27.248 13.386)" fill="#fff"/>
      <path id="Path_829" data-name="Path 829" d="M0,0H.138V.138H.276V.414H.414V.782L.552.828v.414H.506V.966H.414L.368.69H.276L.23.414H.092V.138H0Z" transform="translate(22.31 9.292)" fill="#fff"/>
      <path id="Path_830" data-name="Path 830" d="M-7.632,0h.138V.276h-.092l-.046.276h-.092L-7.77.828h-.092V1.1H-8V.966h.092V.552l.092-.046A1.357,1.357,0,0,0-7.77.276h.138Z" transform="translate(23.824 0.506)" fill="#fff"/>
      <path id="Path_831" data-name="Path 831" d="M-13.356,0h.184V.138h-.138V.276h-.138V.414h-.138V.552h-.138V.644a.628.628,0,0,1-.138.138H-14V.644h.138V.506h.138V.368h.138V.23h.092V.092h.138Z" transform="translate(28.858 20.424)" fill="#fff"/>
      <path id="Path_832" data-name="Path 832" d="M-10.494,0h.046V.414h-.138V.69h-.092l-.046.23h-.138v.138H-11V.92h.092l.017-.129A.528.528,0,0,1-10.77.506h.138V.23h.138Z" transform="translate(25.444 15.272)" fill="#fff"/>
      <path id="Path_833" data-name="Path 833" d="M-5.724,0h.966V.092l-.966.046V.23H-6V.092h.276Z" transform="translate(22.468)" fill="#fff"/>
      <path id="Path_834" data-name="Path 834" d="M-5.724,0h.966V.092l-.966.046V.23H-6l.046-.138h.23Z" transform="translate(10.968)" fill="#fff"/>
      <path id="Path_835" data-name="Path 835" d="M-16.218,0l.046.138h-.138V.276h-.138V.414h-.138V.552h-.138V.69h-.138V.782H-17V.644h.138V.506h.138V.368h.138V.23h.138V.092h.23Z" transform="translate(36.32 16.1)" fill="#fff"/>
      <path id="Path_836" data-name="Path 836" d="M0,0,.184.046V.184H.322V.322H.46V.46H.6V.6H.736V.736H.874V.874H1.15v.138h.092V1.15H1.1V1.012H.966V.92H.828V.782H.69V.644H.552V.506H.414V.368H.276V.23H.138V.092H0Z" transform="translate(5.336 18.584)" fill="#fff"/>
      <path id="Path_837" data-name="Path 837" d="M0,0H.138V.276L.276.322V.69H.414V1.1H.368V.828H.23V.6L.092.644V.138H0Z" transform="translate(13.662 8.74)" fill="#fff"/>
      <path id="Path_838" data-name="Path 838" d="M0,0,.138.046v.23H.276V.552H.414V.874H.506v.138H.368V.736H.23V.46H.092V.184H0Z" transform="translate(8.648 16.836)" fill="#fff"/>
      <path id="Path_839" data-name="Path 839" d="M0,0H.184V.23L.322.276v.23H.414V.69H.276L.23.552.138.46V.276H0Z" transform="translate(0.23 13.11)" fill="#fff"/>
      <path id="Path_840" data-name="Path 840" d="M-1.908,0a.536.536,0,0,1,.092.414h.092q.013.1.026.2l.015.113a.255.255,0,0,1-.04.192L-2,.874l.138-.046V.276h-.092Z" transform="translate(16.03 9.706)" fill="#fff"/>
      <path id="Path_841" data-name="Path 841" d="M0,0H.138V.092H.552V.23L.828.276V.368H.966V.506H.828V.414H.552V.276H.414V.138H0Z" transform="translate(18.906 6.072)" fill="#fff"/>
      <path id="Path_842" data-name="Path 842" d="M0,0,.046.138H.138L.184.414H.276l.046.23H.414L.46.92H.552L.6,1.15.414,1.1V.828H.276V.552H.138V.276H0Z" transform="translate(7.406 14.444)" fill="#fff"/>
      <path id="Path_843" data-name="Path 843" d="M0,0H.138V.138H.276V.276H.414V.414H.552V.69L.506.6.368.552V.46L.23.414V.322L.092.276V.184H0Z" transform="translate(0.644 13.892)" fill="#fff"/>
      <path id="Path_844" data-name="Path 844" d="M0,0H.138V.23H.276V.506H.552V.644H.368V.552H.138L.092.276H0Z" transform="translate(10.534 20.286)" fill="#fff"/>
      <path id="Path_845" data-name="Path 845" d="M-14.31,0h.046V.276H-14.4V.414h-.138V.69h-.138V.828h-.138V.966L-15,1.012V.92h.138l.046-.276h.092l.046-.138h.092V.368h.138l.046-.23h.092Z" transform="translate(15.736 7.958)" fill="#fff"/>
      <path id="Path_846" data-name="Path 846" d="M-17.172,0h.138V.138h-.276V.276h-.414V.368H-18V.23h.414V.138l.414-.046Z" transform="translate(30.144 22.586)" fill="#fff"/>
      <path id="Path_847" data-name="Path 847" d="M-.954,0h.138V.092H.012V.23l-.273,0-.154,0C-.54.23-.54.23-.586.184-.656.173-.726.165-.8.158L-.911.146-1,.138Z" transform="translate(11.074 22.724)" fill="#fff"/>
      <path id="Path_848" data-name="Path 848" d="M-13.356,0h.138V.184h-.138V.276H-14V.138h.644Z" transform="translate(25.224 20.792)" fill="#fff"/>
      <path id="Path_849" data-name="Path 849" d="M-10.494,0l.092.092-.138.046v.23l-.138.046v.23l-.138.046V.92H-11V.782h.138V.506h.138V.23h.138V.092h.092Z" transform="translate(23.006 16.1)" fill="#fff"/>
      <path id="Path_850" data-name="Path 850" d="M0,0H.138V.276H.276V.552H.414V.69H.23V.552H.092V.276H0Z" transform="translate(8.234 16.054)" fill="#fff"/>
      <path id="Path_851" data-name="Path 851" d="M-8.586,0h.138V.184h-.138V.322h-.138V.46h-.138V.69H-9V.414h.138V.276h.138V.138h.138Z" transform="translate(30.758 13.892)" fill="#fff"/>
      <path id="Path_852" data-name="Path 852" d="M-5.724,0V.46h-.092V.874h-.138L-6,1.012V.69h.138V.046C-5.77,0-5.77,0-5.724,0Z" transform="translate(21.916 12.512)" fill="#fff"/>
      <path id="Path_853" data-name="Path 853" d="M0,0,.046.092h.23V.23H.414V.368H.552V.506H.69V.644H.552V.552H.414V.414H.276V.276H.138V.138H0Z" transform="translate(4.83 17.986)" fill="#fff"/>
      <path id="Path_854" data-name="Path 854" d="M-13.356,0l.046.138h-.138V.276h-.138V.414h-.138V.552h-.138V.644H-14V.506h.138V.368h.138V.23h.138V.092h.23Z" transform="translate(31.296 18.124)" fill="#fff"/>
      <path id="Path_855" data-name="Path 855" d="M0,0H.23V.138H.414V.276H.552V.414H.644L.661.526.69.644.782.69H.644V.552H.506V.414H.368V.276H.23V.184H.092V.046Z" transform="translate(20.424 6.992)" fill="#fff"/>
      <path id="Path_856" data-name="Path 856" d="M0,0H.138V.414H.276V.69H.414A.338.338,0,0,1,.506.966H.368V.828H.23V.552H.092V.138H0Z" transform="translate(6.9 13.478)" fill="#fff"/>
      <path id="Path_857" data-name="Path 857" d="M0,0H.736V.138H0Z" transform="translate(6.302 3.772)" fill="#fff"/>
      <path id="Path_858" data-name="Path 858" d="M0,0,.046.138H.138v.69H0Z" transform="translate(7.544 2.254)" fill="#fff"/>
      <path id="Path_859" data-name="Path 859" d="M0,0H.138V.368L.276.414V.69H.092V.276H0Z" transform="translate(13.386 7.958)" fill="#fff"/>
      <path id="Path_860" data-name="Path 860" d="M0,0H.138V.276H.276V.414H.414V.552H.506V.69H.368V.552H.23V.414H.092V.184H0Z" transform="translate(15.272 3.082)" fill="#fff"/>
      <path id="Path_861" data-name="Path 861" d="M-7.632,0h.046V.368l-.138.046v.23L-7.862.69V.828H-8V.69l.092-.046.046-.138h.092l.046-.368h.092Z" transform="translate(30.31 12.972)" fill="#fff"/>
      <path id="Path_862" data-name="Path 862" d="M0,0H.138V.414H.276V.69H.092V.322H0Z" transform="translate(12.696 6.164)" fill="#fff"/>
      <path id="Path_863" data-name="Path 863" d="M-7.632,0h.184V.138h-.138V.276h-.138V.414h-.138V.552H-8V.414h.092V.276h.138V.138h.138Z" transform="translate(23.962 19.596)" fill="#fff"/>
      <path id="Path_864" data-name="Path 864" d="M0,0H.138V.276H.276V.552H.414v.23h.23V.828H.368V.69H.23V.414H.092V.092H0Z" transform="translate(10.948 17.158)" fill="#fff"/>
      <path id="Path_865" data-name="Path 865" d="M0,0H.184V.138H.322V.276H.46V.414H.552V.552H.414V.414H.276V.276H.138V.138H0Z" transform="translate(3.864 17.158)" fill="#fff"/>
      <path id="Path_866" data-name="Path 866" d="M0,0H.138V.23H.276V.644L.368.69.322.782.23.736V.552L.092.506V.092H0Z" transform="translate(8.924 13.386)" fill="#fff"/>
      <path id="Path_867" data-name="Path 867" d="M0,0H.138V.092H.276V.23H.414V.368H.552V.506C.238.415.238.415.138.276V.138H0Z" transform="translate(2.806 16.1)" fill="#fff"/>
      <path id="Path_868" data-name="Path 868" d="M0,0H.138V.276H.046V.552H.138V.828H0Z" transform="translate(4.692 0.506)" fill="#fff"/>
      <path id="Path_869" data-name="Path 869" d="M-21.942-.006V.132H-23V.04l.136,0h.177l.176,0C-22.314.039-22.143-.01-21.942-.006Z" transform="translate(34.086 22.822)" fill="#fff"/>
      <path id="Path_870" data-name="Path 870" d="M-7.632,0h.276l-.092.046V.138h-.138V.276h-.138V.414h-.138V.552H-8V.414h.092V.276L-7.632.23Z" transform="translate(21.662 21.758)" fill="#fff"/>
      <path id="Path_871" data-name="Path 871" d="M-1.908,0h.184V.276h-.138v.23L-2,.552V.23h.092Z" transform="translate(14.558 15.548)" fill="#fff"/>
      <path id="Path_872" data-name="Path 872" d="M-4.77,0h.184V.138h-.138V.414h-.138V.69H-5V.552h.092V.276L-4.77.23Z" transform="translate(15.12 5.658)" fill="#fff"/>
      <path id="Path_873" data-name="Path 873" d="M0,0H.184V.092H.322V.23H.46V.368H.552V.506H.414V.368H.276V.23H.138V.092H0Z" transform="translate(11.868)" fill="#fff"/>
      <path id="Path_874" data-name="Path 874" d="M-5.724,0h.046c0,.067,0,.134.006.2l0,.113c-.009.1-.009.1-.1.192C-5.8.613-5.834.72-5.862.828h-.092L-6,.966V.69h.138V.276h.138Z" transform="translate(20.03 12.42)" fill="#fff"/>
      <path id="Path_875" data-name="Path 875" d="M0,0,.046.092.184.138V.23L.322.276V.414H.414V.552H.276V.414H.138V.276H0Z" transform="translate(21.206 7.682)" fill="#fff"/>
      <path id="Path_876" data-name="Path 876" d="M-.954,0l.092.046V.138h.368l.046.138.132,0A.37.37,0,0,1-.08.322V.414H-.218V.322H-.632V.184l-.132,0A.37.37,0,0,1-1,.138Z" transform="translate(19.262 5.75)" fill="#fff"/>
      <path id="Path_877" data-name="Path 877" d="M-5.724,0h.276l-.138.046V.184a.628.628,0,0,1-.138.138h-.092V.414H-6V.276h.138V.138h.138Z" transform="translate(22.882 18.768)" fill="#fff"/>
      <path id="Path_878" data-name="Path 878" d="M0,0H.184C.322.259.322.259.322.414H.414V.552H.276V.414H.138V.138H0Z" transform="translate(9.568 18.63)" fill="#fff"/>
      <path id="Path_879" data-name="Path 879" d="M0,0H.6V.138H0Z" transform="translate(11.178 3.772)" fill="#fff"/>
      <path id="Path_880" data-name="Path 880" d="M-.954,0l.092.046V.23h.138V.644L-.77.506H-.908V.23H-1Z" transform="translate(7.486 0.276)" fill="#fff"/>
      <path id="Path_881" data-name="Path 881" d="M0,0H.138V.138H.276V.414H.414v.23L.506.69H.368V.552H.23V.276H.092V.046Z" transform="translate(10.534 16.606)" fill="#fff"/>
      <path id="Path_882" data-name="Path 882" d="M0,0H.138A.924.924,0,0,1,.187.354V.466l0,.086H.276V.736L.138.69.111.407.092.322,0,.276Z" transform="translate(15.778 9.154)" fill="#fff"/>
      <path id="Path_883" data-name="Path 883" d="M-4.77,0h.046V.506h-.138V.782H-5V.644h.092L-4.862.23h.092Z" transform="translate(14.844 6.348)" fill="#fff"/>
      <path id="Path_884" data-name="Path 884" d="M0,0H.184V.092L.322.138V.23H.414V.414H.276V.276H.138V.138H0Z" transform="translate(1.978 15.272)" fill="#fff"/>
      <path id="Path_885" data-name="Path 885" d="M0,0,.046.092.184.138q.071.114.138.23L.414.414V.552H.276V.414H.138V.276H0Z" transform="translate(21.62 8.234)" fill="#fff"/>
      <path id="Path_886" data-name="Path 886" d="M0,0,.138.046v.23L.276.322v.23H.368V.69H.23V.46H.092V.138H0Z" transform="translate(7.176 1.564)" fill="#fff"/>
      <path id="Path_887" data-name="Path 887" d="M-2.862,0h.276V.138l-.23.046-.046.138h-.092L-3,.414V.138h.138Z" transform="translate(24.344 14.582)" fill="#fff"/>
      <path id="Path_888" data-name="Path 888" d="M0,0H.138V.552H0Z" transform="translate(15.272 2.53)" fill="#fff"/>
      <path id="Path_889" data-name="Path 889" d="M0,0H.138V.092H.414V.23L.552.276H.184L.138.138H0Z" transform="translate(9.568 22.448)" fill="#fff"/>
      <path id="Path_890" data-name="Path 890" d="M0,0,.046.092.184.138V.276H.276V.552H.138V.276H0Z" transform="translate(4.968 1.61)" fill="#fff"/>
      <path id="Path_891" data-name="Path 891" d="M-5.724,0l.092.046V.184h-.092V.46h-.138V.736L-6,.69h.092V.322L-5.77.276l0-.112C-5.77.046-5.77.046-5.724,0Z" transform="translate(21.548 1.288)" fill="#fff"/>
      <path id="Path_892" data-name="Path 892" d="M-4.77,0h.184V.138h-.138V.414h-.138V.552L-5,.506h.092V.276L-4.77.23Z" transform="translate(17.696 19.044)" fill="#fff"/>
      <path id="Path_893" data-name="Path 893" d="M-2.862,0h.138V.276h-.092V.414H-3V.23h.138Z" transform="translate(17.03 16.744)" fill="#fff"/>
      <path id="Path_894" data-name="Path 894" d="M-5.724,0h.138V.138h-.092l-.046.23h-.138V.506H-6V.368h.092V.23h.184Z" transform="translate(20.444 15.824)" fill="#fff"/>
      <path id="Path_895" data-name="Path 895" d="M0,0H.138V.138H.276v.23H.414V.506H.276L.23.276H.092V.138H0Z" transform="translate(9.982 15.548)" fill="#fff"/>
      <path id="Path_896" data-name="Path 896" d="M-1.07,0h.092V.322l.184.046-.23.092A.519.519,0,0,1-1.116.046Z" transform="translate(9.718 10.212)" fill="#fff"/>
      <path id="Path_897" data-name="Path 897" d="M0,0H.138V.092H.782V0H.92V.138H0Z" transform="translate(6.21 3.634)" fill="#fff"/>
      <path id="Path_898" data-name="Path 898" d="M-5.724,0h.276V.092l-.276.046V.23H-6V.092h.276Z" transform="translate(22.468)" fill="#fff"/>
      <path id="Path_899" data-name="Path 899" d="M0,0H.138L.165.283.184.368.276.414V.552H.138L.092.276H0Z" transform="translate(13.11 7.268)" fill="#fff"/>
      <path id="Path_900" data-name="Path 900" d="M0,0H.184V.092H.552V0L.736.046V.138H0Z" transform="translate(15.916 3.772)" fill="#fff"/>
      <path id="Path_901" data-name="Path 901" d="M-5.724,0h.276V.092l-.276.046V.23H-6l.046-.138h.23Z" transform="translate(10.968)" fill="#fff"/>
      <path id="Path_902" data-name="Path 902" d="M-3.816,0h.092V.276h-.092l-.046.138A1.557,1.557,0,0,1-4,.552V.322l.138-.046,0-.112C-3.862.046-3.862.046-3.816,0Z" transform="translate(19.64 13.616)" fill="#fff"/>
      <path id="Path_903" data-name="Path 903" d="M-11.448,0h.276V.138H-12V.092h.552Z" transform="translate(16.692 5.658)" fill="#fff"/>
      <path id="Path_904" data-name="Path 904" d="M0,0H.138V.828H0V.69H.092V.138H0Z" transform="translate(18.124 0.506)" fill="#fff"/>
      <path id="Path_905" data-name="Path 905" d="M-2.862,0h.138V.276h-.092V.414H-3V.276h.138Z" transform="translate(19.054 0.506)" fill="#fff"/>
      <path id="Path_906" data-name="Path 906" d="M-4.77,0h.184V.138h-.138V.276H-5L-4.908.23V.092h.138Z" transform="translate(20.272 20.424)" fill="#fff"/>
      <path id="Path_907" data-name="Path 907" d="M-2.862,0h.138V.276h-.138V.552L-3,.506h.092l0-.175A.848.848,0,0,1-2.862,0Z" transform="translate(18.824 13.386)" fill="#fff"/>
      <path id="Path_908" data-name="Path 908" d="M0,0H.138V.506H.23V.69H.092V.138H0Z" transform="translate(6.762 13.11)" fill="#fff"/>
      <path id="Path_909" data-name="Path 909" d="M-4.77,0h.184V.092h-.138V.23h-.138V.368H-5V.23h.092V.092h.138Z" transform="translate(15.672)" fill="#fff"/>
      <path id="Path_910" data-name="Path 910" d="M0,0,.138.046v.23H.276V.46H.092V.184H0Z" transform="translate(8.648 16.836)" fill="#fff"/>
      <path id="Path_911" data-name="Path 911" d="M0,0H.138V.138H.276V.414L.23.322.092.276V.184H0Z" transform="translate(0.644 13.892)" fill="#fff"/>
      <path id="Path_912" data-name="Path 912" d="M-4.77,0l.184.046-.046.092h-.092l-.017.129a.528.528,0,0,1-.121.285L-5,.506h.092V.23h.138Z" transform="translate(18.662 13.386)" fill="#fff"/>
      <path id="Path_913" data-name="Path 913" d="M0,0H.138V.414H.23V.6L.092.644V.138H0Z" transform="translate(13.662 8.74)" fill="#fff"/>
      <path id="Path_914" data-name="Path 914" d="M0,0H.138V.092H.322V.23L.414.276H.138V.138H0Z" transform="translate(7.268 20.424)" fill="#fff"/>
      <path id="Path_915" data-name="Path 915" d="M-7.632,0h.046V.23l-.089.014L-7.77.276l-.046.138L-8,.368h.092L-7.862.23h.092V.092h.138Z" transform="translate(25.986 17.71)" fill="#fff"/>
      <path id="Path_916" data-name="Path 916" d="M-8.586,0l.046.138h-.138V.276h-.138V.414h-.138L-9,.552V.368h.138V.138l.276-.046Z" transform="translate(29.792 14.996)" fill="#fff"/>
      <path id="Path_917" data-name="Path 917" d="M-2.862,0h.138V.138h-.092V.414h-.138L-3,.552V.276h.138Z" transform="translate(18.364 14.168)" fill="#fff"/>
      <path id="Path_918" data-name="Path 918" d="M-1.908,0h.184V.138h-.138V.414H-2V.23h.092Z" transform="translate(14.558 19.596)" fill="#fff"/>
      <path id="Path_919" data-name="Path 919" d="M-4.77,0l.046.092h.092L-4.586,0V.138h-.138V.276h-.184V.368H-5V.23h.138V.092h.092Z" transform="translate(25.01 15.824)" fill="#fff"/>
      <path id="Path_920" data-name="Path 920" d="M0,0H.138L.184.23H.276L.322.46.138.414V.138H0Z" transform="translate(7.682 15.134)" fill="#fff"/>
      <path id="Path_921" data-name="Path 921" d="M-2.862,0h.138V.184h-.092v.23H-3V.276h.138Z" transform="translate(10.682 7.13)" fill="#fff"/>
      <path id="Path_922" data-name="Path 922" d="M-4.77,0h.138V.138h-.092V.552L-5,.6V.506h.23Z" transform="translate(11.486 9.982)" fill="#fff"/>
      <path id="Path_923" data-name="Path 923" d="M-.954,0h.138V.092L-.4.138V.23L-1,.138Z" transform="translate(11.074 22.724)" fill="#fff"/>
      <path id="Path_924" data-name="Path 924" d="M-5.724,0h.138V.138h-.276V.276H-6V.092h.276Z" transform="translate(18.696 22.586)" fill="#fff"/>
      <path id="Path_925" data-name="Path 925" d="M-2.862,0h.276l-.138.046V.184h-.138V.276H-3V.138h.138Z" transform="translate(20.296 18.492)" fill="#fff"/>
      <path id="Path_926" data-name="Path 926" d="M0,0H.184V.092h.23V.276H.276V.138H.046Z" transform="translate(4.416 17.71)" fill="#fff"/>
      <path id="Path_927" data-name="Path 927" d="M-2.862,0h.276l-.138.046V.184h-.138V.276H-3V.138h.138Z" transform="translate(22.32 16.606)" fill="#fff"/>
      <path id="Path_928" data-name="Path 928" d="M-2.862,0h.138V.184h-.138v.23H-3V.276h.092Z" transform="translate(18.548 14.03)" fill="#fff"/>
      <path id="Path_929" data-name="Path 929" d="M-2.862,0h.138V.184h-.138V.322H-3V.138h.138Z" transform="translate(25.034 13.892)" fill="#fff"/>
      <path id="Path_930" data-name="Path 930" d="M-1.908,0h.046V.828L-1.908.69H-2V.552h.092Z" transform="translate(18.1 12.42)" fill="#fff"/>
      <path id="Path_931" data-name="Path 931" d="M0,0H.046V.276H.138V.552H0Z" transform="translate(0.092 12.42)" fill="#fff"/>
      <path id="Path_932" data-name="Path 932" d="M-.954,0A.536.536,0,0,1-.862.414H-.77V.552H-.908V.276H-1Z" transform="translate(15.076 9.706)" fill="#fff"/>
      <path id="Path_933" data-name="Path 933" d="M0,0H.138V.322H.046L0,.46Z" transform="translate(9.43 8.05)" fill="#fff"/>
      <path id="Path_934" data-name="Path 934" d="M-7.632,0h.046V.276h-.138V.414h-.138V.552L-8,.506h.092V.368h.138l.046-.23h.092Z" transform="translate(9.058 7.958)" fill="#fff"/>
      <path id="Path_935" data-name="Path 935" d="M-2.862,0h.276l-.138.046V.184h-.138V.276H-3V.138h.138Z" transform="translate(5.668 6.578)" fill="#fff"/>
      <path id="Path_936" data-name="Path 936" d="M0,0H.276V.138H.414V.276H.276V.184H.138V.046Z" transform="translate(19.872 6.578)" fill="#fff"/>
      <path id="Path_937" data-name="Path 937" d="M0,0H.138L.184.23H.276V.414H.138V.138H0Z" transform="translate(12.42 5.658)" fill="#fff"/>
      <path id="Path_938" data-name="Path 938" d="M-1.908,0h.138V.092h-.092v.46H-2V.368h.092Z" transform="translate(19.572 1.886)" fill="#fff"/>
      <path id="Path_939" data-name="Path 939" d="M0,0H.276V.138H.368V.276H.23V.138H.092V.046Z" transform="translate(1.472 14.858)" fill="#fff"/>
      <path id="Path_940" data-name="Path 940" d="M-1.908,0h.184V.138h-.138V.276H-2V.092h.092Z" transform="translate(3.472 7.82)" fill="#fff"/>
      <path id="Path_941" data-name="Path 941" d="M-1.908,0h.138V.138h-.092V.46H-2V.322h.092Z" transform="translate(15.524 17.802)" fill="#fff"/>
      <path id="Path_942" data-name="Path 942" d="M-2.862,0l.138.046h-.092v.23l-.138.046v.23H-3V.184l.092-.046Z" transform="translate(16.34 18.078)" fill="#fff"/>
      <path id="Path_943" data-name="Path 943" d="M-6.678,0h.138V.138h-.276V.23L-7,.184l.046-.092h.276Z" transform="translate(10.036 6.348)" fill="#fff"/>
      <path id="Path_944" data-name="Path 944" d="M-2.862,0h.138V.184h-.138V.276H-3V.138h.138Z" transform="translate(14.73 20.792)" fill="#fff"/>
      <path id="Path_945" data-name="Path 945" d="M0,0H.184V.138H.276V.276H.138V.138H0Z" transform="translate(4.14 17.434)" fill="#fff"/>
      <path id="Path_946" data-name="Path 946" d="M0,0H.138V.092H.276V.276H.138V.138H0Z" transform="translate(2.392 15.686)" fill="#fff"/>
      <path id="Path_947" data-name="Path 947" d="M0,0H.046V.966H0Z" transform="translate(22.954 12.098)" fill="#fff"/>
      <path id="Path_948" data-name="Path 948" d="M0,0H.138V.092H.414V.23H.276V.138H0Z" transform="translate(19.458 6.348)" fill="#fff"/>
      <path id="Path_949" data-name="Path 949" d="M-1.908,0h.138V.138h-.092V.414H-2V.276h.092Z" transform="translate(17.824 1.196)" fill="#fff"/>
      <path id="Path_950" data-name="Path 950" d="M-2.862,0h.046V.276h-.138V.552H-3V.138h.138Z" transform="translate(13.488 0.23)" fill="#fff"/>
      <path id="Path_951" data-name="Path 951" d="M-5.724,0V.138h-.092l-.046.138L-6,.23V.092C-5.827,0-5.827,0-5.724,0Z" transform="translate(18.144 20.424)" fill="#fff"/>
      <path id="Path_952" data-name="Path 952" d="M0,0H.138L.155.135.184.276.276.322.23.414.138.368V.184L0,.138Z" transform="translate(9.016 13.754)" fill="#fff"/>
      <path id="Path_953" data-name="Path 953" d="M0,0,.046.138H.138V.414L0,.368Z" transform="translate(16.054 10.12)" fill="#fff"/>
      <path id="Path_954" data-name="Path 954" d="M0,0H.046V.92H0Z" transform="translate(22.954 10.074)" fill="#fff"/>
      <path id="Path_955" data-name="Path 955" d="M-3.428,0l.112,0-.092.046.046.138h-.184l-.046.092q0-.115,0-.23C-3.546,0-3.546,0-3.428,0Z" transform="translate(5.708 7.127)" fill="#fff"/>
      <path id="Path_956" data-name="Path 956" d="M0,0H.276V.092L.368.138H0Z" transform="translate(17.986 5.796)" fill="#fff"/>
      <path id="Path_957" data-name="Path 957" d="M0,0H.276L.184.046.138.184H.046L0,.276Z" transform="translate(14.306 21.482)" fill="#fff"/>
      <path id="Path_958" data-name="Path 958" d="M0,0H.092V.092H.414V.23H.276V.138H0Z" transform="translate(10.81 20.838)" fill="#fff"/>
      <path id="Path_959" data-name="Path 959" d="M0,0H.276L.184.046.138.184H.046L0,.276Z" transform="translate(16.744 19.182)" fill="#fff"/>
      <path id="Path_960" data-name="Path 960" d="M0,0H.276L.184.046.138.184H.046L0,.276Z" transform="translate(19.182 16.882)" fill="#fff"/>
      <path id="Path_961" data-name="Path 961" d="M-2.862,0V.322H-3V.046C-2.908,0-2.908,0-2.862,0Z" transform="translate(19.054 12.512)" fill="#fff"/>
      <path id="Path_962" data-name="Path 962" d="M-2.862,0V.322H-3V.046C-2.908,0-2.908,0-2.862,0Z" transform="translate(12.568 7.636)" fill="#fff"/>
      <path id="Path_963" data-name="Path 963" d="M0,0H.276V.276L.23.184.092.138V.046Z" transform="translate(17.71 0.092)" fill="#fff"/>
      <path id="Path_964" data-name="Path 964" d="M0,0H.276V.276L.23.184.092.138V.046Z" transform="translate(6.21 0.092)" fill="#fff"/>
      <path id="Path_965" data-name="Path 965" d="M0,0H.276V.138H0Z" transform="translate(11.868 22.816)" fill="#fff"/>
      <path id="Path_966" data-name="Path 966" d="M-2.862,0h.138c0,.138,0,.138-.06.216-.078.06-.078.06-.216.06V.138h.138Z" transform="translate(17.582 21.206)" fill="#fff"/>
      <path id="Path_967" data-name="Path 967" d="M0,0H.138V.138H.23V.276H.092V.138H0Z" transform="translate(6.348 19.458)" fill="#fff"/>
      <path id="Path_968" data-name="Path 968" d="M0,0H.138V.276H0Z" transform="translate(14.306 16.468)" fill="#fff"/>
      <path id="Path_969" data-name="Path 969" d="M0,0H.138V.276H0Z" transform="translate(8.234 16.054)" fill="#fff"/>
      <path id="Path_970" data-name="Path 970" d="M-1.908,0h.046V.552H-2V.414h.092Z" transform="translate(24.724 12.42)" fill="#fff"/>
      <path id="Path_971" data-name="Path 971" d="M0,0H.046V.414H.138V.552H0Z" transform="translate(8.602 12.42)" fill="#fff"/>
      <path id="Path_972" data-name="Path 972" d="M0,0H.138V.552H.092V.138H0Z" transform="translate(6.624 12.42)" fill="#fff"/>
      <path id="Path_973" data-name="Path 973" d="M0,0H.138V.276H0Z" transform="translate(14.168 12.42)" fill="#fff"/>
      <path id="Path_974" data-name="Path 974" d="M0,0,.046.138H.138v.23H0Z" transform="translate(22.678 10.12)" fill="#fff"/>
      <path id="Path_975" data-name="Path 975" d="M0,0H.138V.276H0Z" transform="translate(8.878 9.43)" fill="#fff"/>
      <path id="Path_976" data-name="Path 976" d="M0,0H.138V.276H0Z" transform="translate(13.386 7.958)" fill="#fff"/>
      <path id="Path_977" data-name="Path 977" d="M0,0,.046.138H.184V.414L.138.276H0Z" transform="translate(13.202 7.682)" fill="#fff"/>
      <path id="Path_978" data-name="Path 978" d="M0,0H.138V.276H0Z" transform="translate(9.706 7.268)" fill="#fff"/>
      <path id="Path_979" data-name="Path 979" d="M0,0H.138V.276H0Z" transform="translate(10.12 6.348)" fill="#fff"/>
      <path id="Path_980" data-name="Path 980" d="M0,0H.138V.276H0Z" transform="translate(8.096 6.348)" fill="#fff"/>
      <path id="Path_981" data-name="Path 981" d="M0,0H.276V.138H0Z" transform="translate(3.634 6.21)" fill="#fff"/>
      <path id="Path_982" data-name="Path 982" d="M0,0H.138V.276H0Z" transform="translate(8.234 5.934)" fill="#fff"/>
      <path id="Path_983" data-name="Path 983" d="M0,0H.138V.276H0Z" transform="translate(8.372 5.658)" fill="#fff"/>
      <path id="Path_984" data-name="Path 984" d="M0,0H.276V.138H0Z" transform="translate(4.968 5.796)" fill="#fff"/>
      <path id="Path_985" data-name="Path 985" d="M0,0H.276V.138H0Z" transform="translate(4.692 5.796)" fill="#fff"/>
      <path id="Path_986" data-name="Path 986" d="M0,0H.276V.138H0Z" transform="translate(5.52 5.658)" fill="#fff"/>
      <path id="Path_987" data-name="Path 987" d="M0,0,.046.092A1.884,1.884,0,0,0,.322.138V.276H.138V.138H0Z" transform="translate(10.764 3.496)" fill="#fff"/>
      <path id="Path_988" data-name="Path 988" d="M-5.724,0l.046.138h-.138V.276H-6V.138l.276-.046Z" transform="translate(17.868 3.496)" fill="#fff"/>
      <path id="Path_989" data-name="Path 989" d="M0,0H.138V.276H0Z" transform="translate(10.534 0.506)" fill="#fff"/>
      <path id="Path_990" data-name="Path 990" d="M0,0H.276V.138H0Z" transform="translate(21.482 14.582)" fill="#fff"/>
      <path id="Path_991" data-name="Path 991" d="M0,0,.138.046V.46H.092V.184H0Z" transform="translate(22.724 10.074)" fill="#fff"/>
      <path id="Path_992" data-name="Path 992" d="M0,0H.046V.23H.138V.414H0Z" transform="translate(13.616 8.648)" fill="#fff"/>
      <path id="Path_993" data-name="Path 993" d="M0,0H.046V.23H.138V.414H0Z" transform="translate(15.64 8.648)" fill="#fff"/>
      <path id="Path_994" data-name="Path 994" d="M0,0H.138V.184H.046v.23H0Z" transform="translate(7.958 6.716)" fill="#fff"/>
      <path id="Path_995" data-name="Path 995" d="M0,0H.184V.092H.276V.23H.138V.092H0Z" transform="translate(11.868)" fill="#fff"/>
      <path id="Path_996" data-name="Path 996" d="M0,0,.092.046Z" transform="translate(18.032 18.17)" fill="#fff"/>
      <path id="Path_997" data-name="Path 997" d="M0,0,.092.046Z" transform="translate(4.554 17.894)" fill="#fff"/>
      <path id="Path_998" data-name="Path 998" fill="#fff"/>
      <path id="Path_999" data-name="Path 999" fill="#fff"/>
      <path id="Path_1000" data-name="Path 1000" fill="#fff"/>
      <path id="Path_1001" data-name="Path 1001" fill="#fff"/>
      <path id="Path_1002" data-name="Path 1002" fill="#fff"/>
      <path id="Path_1003" data-name="Path 1003" fill="#fff"/>
      <path id="Path_1004" data-name="Path 1004" fill="#fff"/>
      <path id="Path_1005" data-name="Path 1005" fill="#fff"/>
      <path id="Path_1006" data-name="Path 1006" fill="#fff"/>
      <path id="Path_1007" data-name="Path 1007" fill="#fff"/>
      <path id="Path_1008" data-name="Path 1008" fill="#fff"/>
      <path id="Path_1009" data-name="Path 1009" fill="#fff"/>
      <path id="Path_1010" data-name="Path 1010" fill="#fff"/>
    </g>
  </g>
</svg>
