<svg xmlns="http://www.w3.org/2000/svg" width="22.954" height="14.45" viewBox="0 0 22.954 14.45">
  <path id="Path_1239" data-name="Path 1239" d="M-41.976,0h4.784V5.612h1.84V5.52h-.092L-35.49,0h6.026V5.474l-.138.046v.092h1.886l-.046-.552c0-.176-.006-.351-.005-.527v-.15q0-.242,0-.484,0-.169,0-.338,0-.442,0-.885,0-.532,0-1.064,0-.806,0-1.612h4.83V.322h.092l.046.6h.092l.046.644h.092l.019.129.025.167.024.167c.01.13.01.13.071.181.013.143.021.285.029.428l.017.124.092.046a2.864,2.864,0,0,1,.029.325l.01.18.007.139h.092V4h.138l.007.116.01.151.01.15a.341.341,0,0,0,.111.272,2.152,2.152,0,0,1,.006.285l0,.151,0,.116h.138v.644h.138V6.44l.138.046V7.13h.138v.552h.092a.725.725,0,0,1,.049.374v.153l0,.118.138.046v3.542h-.138l0,.132a.37.37,0,0,1-.049.236h-.092l-.046.184h-.092v.23H-21.6l-.014.08a.7.7,0,0,1-.17.288h-.092v.184h-.138v.138h-.138v.138l-.112.017-.118.029-.046.092h-.138V13.8H-22.7v.092l-.276.046v.138h-.276v.092l-.175.04a.832.832,0,0,0-.331.144c-.117.013-.23.021-.348.026l-.187.009-.1,0c-.108.007-.216.018-.324.031a7.1,7.1,0,0,1-.768.028h-.387a.327.327,0,0,1-.188-.052c-.114-.01-.228-.017-.342-.023a1.279,1.279,0,0,1-.486-.069v-.092l-.155.006c-.167-.006-.167-.006-.259-.1a1.073,1.073,0,0,0-.184-.046v-.138h-.23l-.046-.138h-.23v-.138h-.138v-.138h-.138v-.138h-.138v-.138a.517.517,0,0,0-.368,0v.138h-.138v.138h-.138l-.046.138h-.23V13.8h-.138v.138h-.276v.138h-.276v.138h-.414l-.046.138-.165.008-.215.012-.108.005-.105.006-.1.005a.532.532,0,0,0-.177.033,1.233,1.233,0,0,1-.315.024l-.129,0-.139,0-.145,0-.305-.007-.459-.01c-.549-.012-1.1-.031-1.643-.069l-.046-.138h-.368l-.046-.092c-.091-.033-.183-.064-.276-.092v-.046l-.23-.046V13.8h-.184v-.138h-.23v-.138H-36v-.138h-.138v-.138h-.138V13.11h-.092v.138H-36.5v.138h-.138v.138h-.138v.138l-.138.092-.046.046q-.115,0-.23,0v.138h-.276v.138h-.276v.138h-.414v.138l-.146.008-.19.012-.1.005a1.47,1.47,0,0,0-.4.066c-.112,0-.223.005-.335,0h-.62l-.517,0v-.092l-.146,0h-.287a1.13,1.13,0,0,1-.4-.05v-.092h-.368l-.046-.138h-.276v-.138l-.276-.046V13.8h-.138v-.138h-.138v-.138h-.23l-.046-.138-.138-.046v-.092l-.138-.046V13.11h-.092l-.04-.112c-.039-.124-.039-.124-.144-.164V12.7l-.138-.046v-.184l-.138-.046v-.138h-.092l-.046-.368h-.092l-.046-.322H-44V8.74h.092l.007-.089a3.22,3.22,0,0,1,.131-.693c.017-.092.032-.184.046-.276h.092l0-.082a2.078,2.078,0,0,1,.048-.562h.092l0-.1V6.817l0-.125a.614.614,0,0,1,.05-.252h.092l0-.106,0-.139,0-.137a.372.372,0,0,1,.1-.262c.02-.094.037-.189.052-.285l.023-.151.017-.116h.092l0-.116,0-.151,0-.15a.379.379,0,0,1,.1-.272,1.613,1.613,0,0,0,.029-.262l.01-.139.007-.106L-42.8,4l0-.118V3.732l0-.152a.359.359,0,0,1,.05-.222h.092V2.806l.092-.046a1.6,1.6,0,0,0,.026-.273c.016-.27.016-.27.066-.371h.092V1.564h.138l0-.118,0-.153,0-.152a.234.234,0,0,1,.1-.222,1.731,1.731,0,0,0,.029-.282l.01-.153.007-.118.138-.046Z" transform="translate(44)" fill="#fff"/>
</svg>
