<svg id="Capture_d_écran__le_2023-11-18_à_18.12.51-removebg-preview" xmlns="http://www.w3.org/2000/svg" width="22.86" height="23" viewBox="0 0 22.86 23">
  <path id="Path_1011" data-name="Path 1011" d="M-17.972-.058h5.838l6.561,0h3.264l6.28,0v.046h-6.1V.085h.138V.223h.138V.361h.138a1.387,1.387,0,0,1,.146.889l-.009.579H.255L.3,1.967h.5V2.1h.367l.046.092a1.88,1.88,0,0,0,.275.046V2.38h.229v.138h.184v.138h.229v.138H2.32v.138h.138v.092l.138.046V3.16h.092V3.3h.138v.138h.138v.138H3.1v.184h.138v.229h.138v.138l.138.046V4.4l.138.046v.229h.092l.046.413h.138l.046.688a2.149,2.149,0,0,1-.559.051H2.629l-.771,0-.831,0-1.44,0-1.51,0h-.572l-3.378-.008L-9.154,5.8h-.1l-1.016,0-2.069,0h-.1l-6.354-.015-.046.138a5.751,5.751,0,0,1,.138-.826h.092l.014-.163a1.6,1.6,0,0,1,.169-.525h.092l.046-.229h.092V3.986h.138l.046-.229h.092l.046-.184h.092V3.435h.138V3.3h.138V3.16h.138V3.022h.138V2.931h.138V2.793h.138V2.655l.229-.046V2.518h.275V2.38h.184V2.242h.367V2.1h.275V1.967h.551V1.829h1.882l-.046-.138c-.01-.151-.008-.3-.009-.453l0-.125a1.111,1.111,0,0,1,.1-.569l.046-.1c.046-.08.046-.08.138-.126V.223h.138V.085h.184V-.006h-5.553V.085h-.229V-.006A.955.955,0,0,1-17.972-.058Zm6.295.052V.085h.229l.046.275h.092l.046.138.092.046.046,1.285h7.48V.5h.138A.789.789,0,0,0-3.371.085h.229V-.006Z" transform="translate(18.888 0.061)" fill="#fff"/>
  <path id="Path_1012" data-name="Path 1012" d="M-5.049-.01H-.5C-.419,0-.419,0-.373.042c0,.121.006.242.005.363,0,.038,0,.076,0,.115q0,.19,0,.379,0,.131,0,.262,0,.346,0,.691t0,.705q0,.692,0,1.384a1.336,1.336,0,0,1-.681.1h-.9l-.817,0-.834,0-1.636,0a.977.977,0,0,1-.052-.46V3.46q0-.189,0-.378,0-.131,0-.262,0-.274,0-.549,0-.352,0-.7,0-.27,0-.54,0-.13,0-.26,0-.181,0-.363V.294C-5.288-.01-5.288-.01-5.049-.01Z" transform="translate(17.68 7.538)" fill="#fff"/>
  <path id="Path_1013" data-name="Path 1013" d="M-5-.01h4.55C-.366,0-.366,0-.32.042c0,.121.006.241.006.363V.52q0,.189,0,.379,0,.131,0,.262,0,.275,0,.55,0,.353,0,.706,0,.27,0,.541,0,.13,0,.26,0,.182,0,.363v.11c0,.248,0,.248-.052.3-.063,0-.125.006-.188.006H-5.1c-.081-.006-.081-.006-.127-.052,0-.121-.006-.241-.006-.363V3.465q0-.189,0-.379,0-.131,0-.262,0-.275,0-.55,0-.353,0-.706,0-.27,0-.541,0-.13,0-.26,0-.182,0-.363V.295C-5.236-.01-5.236-.01-5-.01Z" transform="translate(17.627 13.321)" fill="#fff"/>
  <path id="Path_1014" data-name="Path 1014" d="M-5.856-.12H-1.4c.085.011.085.011.177.1.009.121.012.237.011.359V.448c0,.123,0,.245,0,.368q0,.128,0,.255,0,.268,0,.535,0,.344,0,.687,0,.263,0,.527,0,.127,0,.253,0,.177,0,.354v.106c0,.242,0,.242-.053.344H-6.137V-.068A.519.519,0,0,1-5.856-.12Z" transform="translate(18.534 19.076)" fill="#fff"/>
  <path id="Path_1015" data-name="Path 1015" d="M-2.156,0H2.662V3.993a1.331,1.331,0,0,1-.383.05h-.12l-.131,0H1.89l-.453-.005-.314,0L.3,4.02l-.843-.009L-2.2,3.993a1.94,1.94,0,0,1-.053-.534V3.352q0-.174,0-.347,0-.121,0-.242,0-.253,0-.506,0-.325,0-.649,0-.25,0-.5,0-.12,0-.239,0-.167,0-.334v-.1A.807.807,0,0,1-2.156,0Z" transform="translate(7.898 7.535)" fill="#fff"/>
  <path id="Path_1016" data-name="Path 1016" d="M-3.92-.012h.5l.458,0h.317l.665,0,.854,0h.969L.279,0H.637A.317.317,0,0,1,.813.051V4l-4.864.046a.956.956,0,0,1-.053-.45V3.482q0-.184,0-.368,0-.127,0-.255,0-.267,0-.535,0-.343,0-.686,0-.263,0-.526,0-.126,0-.253,0-.177,0-.353V.4C-4.107.026-4.107.026-3.92-.012Z" transform="translate(9.747 18.956)" fill="#fff"/>
  <path id="Path_1017" data-name="Path 1017" d="M-1.192,0H3.672V3.993H-1.146a1.359,1.359,0,0,1-.1-.586V3.3c0-.116,0-.232,0-.347q0-.121,0-.242,0-.253,0-.506,0-.325,0-.649,0-.25,0-.5,0-.12,0-.239,0-.167,0-.334v-.1A1.131,1.131,0,0,1-1.192,0Z" transform="translate(6.888 13.317)" fill="#fff"/>
  <path id="Path_1018" data-name="Path 1018" d="M0,0H.092V.184H.238L1.6.181H3.7c.245,0,.245,0,.3.052C4,.351,4,.471,4,.592V.707Q4,.9,4,1.086q0,.131,0,.262,0,.275,0,.55Q4,2.25,4,2.6q0,.27,0,.541,0,.13,0,.26,0,.182,0,.363v.11c0,.248,0,.248-.052.3-.12,0-.239.006-.359.005H1.46l-1.368,0v.138H0Z" transform="translate(0.006 13.133)" fill="#fff"/>
  <path id="Path_1019" data-name="Path 1019" d="M-1.073-.356.43-.363l.7,0,.673,0h.725a1.772,1.772,0,0,1,.256.017.76.76,0,0,1,.1.5V.259c0,.123,0,.245,0,.368q0,.128,0,.255,0,.267,0,.535,0,.344,0,.687,0,.263,0,.527,0,.127,0,.253,0,.177,0,.353v.107c0,.241,0,.241-.053.292-.114.005-.226.008-.34.009H2.38l-.233,0-.368,0L1,3.659l-.9.009-.363,0-.222,0h-.1a1.173,1.173,0,0,0-.387.054.588.588,0,0,0-.046.184h-.092q0-.784,0-1.568,0-.364,0-.728t0-.7q0-.134,0-.268,0-.188,0-.375V.158A2.066,2.066,0,0,1-1.073-.356Z" transform="translate(1.124 7.891)" fill="#fff"/>
  <path id="Path_1020" data-name="Path 1020" d="M-1.192,0H2.663V3.993H-1.146a1.033,1.033,0,0,1-.1-.544v-.11c0-.119,0-.238,0-.358q0-.124,0-.249,0-.26,0-.521,0-.334,0-.668,0-.257,0-.513,0-.123,0-.246,0-.172,0-.344v-.1C-1.243.1-1.243.1-1.192,0Z" transform="translate(20.197 13.317)" fill="#fff"/>
  <path id="Path_1021" data-name="Path 1021" d="M-10.433-.06H-8.9l1.876,0V3.937h-3.855a.93.93,0,0,1-.052-.441V3.387q0-.179,0-.359,0-.124,0-.249,0-.261,0-.522,0-.335,0-.669,0-.257,0-.514,0-.123,0-.247,0-.172,0-.345v-.1a1.146,1.146,0,0,1,.052-.39A.942.942,0,0,1-10.433-.06Z" transform="translate(29.886 7.59)" fill="#fff"/>
  <path id="Path_1022" data-name="Path 1022" d="M-10.994-.007h2.951a1.675,1.675,0,0,1,.429.052L-7.66.733H-7.8V1.1l-.138.046v.275h-.138v.229l-.138.046v.138h-.138v.229h-.138v.184h-.138v.138h-.138v.138H-8.9V2.66h-.092v.092h-.138V2.89h-.138v.138H-9.4l-.046.138h-.229V3.3h-.138V3.44h-.275v.138h-.275v.138h-.413v.138h-.413v.138h-.275a.918.918,0,0,1-.052-.436V3.447q0-.177,0-.353,0-.123,0-.245,0-.257,0-.515,0-.33,0-.66,0-.253,0-.507,0-.122,0-.243,0-.17,0-.34v-.1c0-.321,0-.321.052-.438A1.4,1.4,0,0,1-10.994-.007Z" transform="translate(30.474 18.963)" fill="#fff"/>
  <path id="Path_1023" data-name="Path 1023" d="M-12.1-.109h2.985a.546.546,0,0,1,.379.1,2.887,2.887,0,0,1,.014.359V.46c0,.123,0,.245,0,.368q0,.128,0,.255,0,.336,0,.673,0,.538-.007,1.077,0,.188,0,.377,0,.115,0,.23l0,.106c0,.084,0,.168.01.252l.092.092h-.413V3.8l-.413-.046V3.614h-.367l-.046-.138h-.229l-.046-.092q-.137-.048-.275-.092l-.138-.092V3.11l-.229-.046V2.926h-.138V2.788h-.138V2.651h-.138V2.559h-.138V2.421h-.138V2.284h-.138V2.146l-.138-.046V1.962H-11.9V1.733h-.138V1.6h-.092l-.046-.275h-.092l-.046-.275H-12.4l-.046-.413h-.092l-.046-.413h-.092V-.057A2.4,2.4,0,0,1-12.1-.109Z" transform="translate(12.732 19.064)" fill="#fff"/>
  <path id="Path_1024" data-name="Path 1024" d="M-7.633,0h.046V.413h-.138V.826h-.138V1.1H14.716V.688h-.138V.413h-.092V.138h.092l.046.413h.138l.046.688a2.149,2.149,0,0,1-.559.051h-.784l-.771,0-.831,0-1.44,0-1.51,0H8.342L4.964,1.269,1.682,1.261h-.1l-1.016,0-2.069,0h-.1l-6.354-.015L-8,1.377A5.751,5.751,0,0,1-7.862.551h.092l.017-.172A.845.845,0,0,1-7.633,0Z" transform="translate(8.052 4.598)" fill="#fff"/>
  <path id="Path_1025" data-name="Path 1025" d="M-9.385-.058H6.279l6.28,0v.046h-6.1V.085h.138V.223h.138V.361h.138a1.387,1.387,0,0,1,.146.889l-.009.579H8.842l.046.138h.5V2.1H9.117V2.013H8.7V1.875H6.822V.5H6.685V.269H6.547V.131L6.272.085V-.006H5.629V.085H5.492V.269H5.216V.544H5.124V.661q0,.215,0,.429,0,.093,0,.186,0,.133,0,.267v.162c-.005.123-.005.123-.051.169-.1,0-.2.006-.3.006H.273l-2.858,0V.636h-.138V.452L-2.861.407V.223H-3V.131H-4.192V.269l-.184.046V.223h.138V.085h.184V-.006H-9.607V.085h-.229V-.006A.955.955,0,0,1-9.385-.058Zm6.295.052V.085h.229l.046.275h.092L-2.677.5l.092.046.046,1.285h7.48V.5h.138A.789.789,0,0,0,5.216.085h.229V-.006Z" transform="translate(10.301 0.061)" fill="#fff"/>
  <path id="Path_1026" data-name="Path 1026" d="M-1.192,0H2.663V.184H-1.009V3.809H2.663v.184H-1.146a1.033,1.033,0,0,1-.1-.544v-.11c0-.119,0-.238,0-.358q0-.124,0-.249,0-.26,0-.521,0-.334,0-.668,0-.257,0-.513,0-.123,0-.246,0-.172,0-.344v-.1C-1.243.1-1.243.1-1.192,0Z" transform="translate(20.197 13.317)" fill="#fff"/>
  <path id="Path_1027" data-name="Path 1027" d="M-5.049-.01H-.5C-.419,0-.419,0-.373.042c0,.121.006.242.005.363,0,.038,0,.076,0,.115q0,.19,0,.379,0,.131,0,.262,0,.346,0,.691t0,.705q0,.692,0,1.384a1.336,1.336,0,0,1-.681.1h-.9l-.817,0-.834,0-1.636,0a.977.977,0,0,1-.052-.46V3.46q0-.189,0-.378,0-.131,0-.262,0-.274,0-.549,0-.352,0-.7,0-.27,0-.54,0-.13,0-.26,0-.181,0-.363V.294C-5.288-.01-5.288-.01-5.049-.01ZM-5.238.18V3.943H-.557V.18Z" transform="translate(17.68 7.538)" fill="#fff"/>
  <path id="Path_1028" data-name="Path 1028" d="M-5-.01h4.55C-.366,0-.366,0-.32.042c0,.121.006.241.006.363V.52q0,.189,0,.379,0,.131,0,.262,0,.275,0,.55,0,.353,0,.706,0,.27,0,.541,0,.13,0,.26,0,.182,0,.363v.11c0,.248,0,.248-.052.3-.063,0-.125.006-.188.006H-5.1c-.081-.006-.081-.006-.127-.052,0-.121-.006-.241-.006-.363V3.465q0-.189,0-.379,0-.131,0-.262,0-.275,0-.55,0-.353,0-.706,0-.27,0-.541,0-.13,0-.26,0-.182,0-.363V.295C-5.236-.01-5.236-.01-5-.01Zm-.188.052V3.805H-.5V.042Z" transform="translate(17.627 13.321)" fill="#fff"/>
  <path id="Path_1029" data-name="Path 1029" d="M-1.192,0H3.672V3.993H-1.146a1.359,1.359,0,0,1-.1-.586V3.3c0-.116,0-.232,0-.347q0-.121,0-.242,0-.253,0-.506,0-.325,0-.649,0-.25,0-.5,0-.12,0-.239,0-.167,0-.334v-.1A1.131,1.131,0,0,1-1.192,0Zm.138.046V3.809H3.627V.046Z" transform="translate(6.888 13.317)" fill="#fff"/>
  <path id="Path_1030" data-name="Path 1030" d="M-12.1-.109h2.985a.546.546,0,0,1,.379.1,2.887,2.887,0,0,1,.014.359V.46c0,.123,0,.245,0,.368q0,.128,0,.255,0,.336,0,.673,0,.538-.007,1.077,0,.188,0,.377,0,.115,0,.23l0,.106c0,.084,0,.168.01.252l.092.092h-.413V3.8l-.413-.046V3.614h-.367l-.046-.138h-.229l-.046-.092q-.137-.048-.275-.092l-.138-.092V3.11l-.229-.046V2.926h-.138V2.788h.138V2.88h.275v.138h.138v.138h.275v.138h.275v.184H-9.7v.092h.367v.138h.413V.081L-12.5.127V.218h.092V.769l-.046-.138h-.092l-.046-.413h-.092V-.057A2.4,2.4,0,0,1-12.1-.109Z" transform="translate(12.732 19.064)" fill="#fff"/>
  <path id="Path_1031" data-name="Path 1031" d="M-5.856-.12H-1.4c.085.011.085.011.177.1.009.122.012.238.01.36V.45c0,.123,0,.246,0,.369q0,.128,0,.256,0,.337,0,.674t0,.687q0,.675,0,1.349l-.184.046V.069H-6.091V3.832h-.046v-3.9A.519.519,0,0,1-5.856-.12Z" transform="translate(18.534 19.076)" fill="#fff"/>
  <path id="Path_1032" data-name="Path 1032" d="M-2.156,0H2.662V3.993a1.331,1.331,0,0,1-.383.05h-.12l-.131,0H1.89l-.453-.005-.314,0L.3,4.02l-.843-.009L-2.2,3.993a1.94,1.94,0,0,1-.053-.534V3.352q0-.174,0-.347,0-.121,0-.242,0-.253,0-.506,0-.325,0-.649,0-.25,0-.5,0-.12,0-.239,0-.167,0-.334v-.1A.807.807,0,0,1-2.156,0Zm0,.184V3.9a.512.512,0,0,0,.281.051H1.106l1.511,0V.184Z" transform="translate(7.898 7.535)" fill="#fff"/>
  <path id="Path_1033" data-name="Path 1033" d="M0-.356,1.5-.363l.7,0,.673,0H3.6a1.772,1.772,0,0,1,.256.017.76.76,0,0,1,.1.5V.259c0,.123,0,.245,0,.368q0,.128,0,.255,0,.267,0,.535,0,.344,0,.687,0,.263,0,.527,0,.127,0,.253,0,.177,0,.353v.107c0,.241,0,.241-.053.292-.114.005-.226.008-.34.009H3.453l-.233,0-.368,0-.781.007-.9.009-.363,0-.222,0h-.1a1.173,1.173,0,0,0-.387.054A.822.822,0,0,0,0,3.912V3.591H3.763V-.173H0Z" transform="translate(0.052 7.891)" fill="#fff"/>
  <path id="Path_1034" data-name="Path 1034" d="M0,0,.046.184H.192l1.359,0h2.1c.245,0,.245,0,.3.052,0,.121.006.241.006.363V.707q0,.189,0,.379,0,.131,0,.262,0,.275,0,.55,0,.353,0,.706,0,.27,0,.541,0,.13,0,.26,0,.182,0,.363v.11c0,.248,0,.248-.052.3-.12,0-.239.006-.359.005H1.414l-1.368,0L0,4.314V3.993H3.763V.229H0Z" transform="translate(0.052 13.133)" fill="#fff"/>
  <path id="Path_1035" data-name="Path 1035" d="M-10.433-.06h2.074l1.333,0V.129h-3.717V3.892h3.717v.046h-3.855a.93.93,0,0,1-.052-.441V3.387q0-.179,0-.359,0-.124,0-.249,0-.261,0-.522,0-.335,0-.669,0-.257,0-.514,0-.123,0-.247,0-.172,0-.345v-.1a1.146,1.146,0,0,1,.052-.39A.942.942,0,0,1-10.433-.06Z" transform="translate(29.886 7.59)" fill="#fff"/>
  <path id="Path_1036" data-name="Path 1036" d="M-3.92-.012h.5l.458,0h.317l.665,0,.854,0h.969L.279,0H.637A.317.317,0,0,1,.813.051V.189H-3.914V3.952h-.138A4.129,4.129,0,0,1-4.1,3.276v-.1q0-.166,0-.332,0-.116,0-.232,0-.243,0-.485,0-.311,0-.622,0-.239,0-.479,0-.115,0-.229,0-.16,0-.32v-.1C-4.107.026-4.107.026-3.92-.012Z" transform="translate(9.747 18.956)" fill="#fff"/>
  <path id="Path_1037" data-name="Path 1037" d="M-10.994-.007h2.951a1.675,1.675,0,0,1,.429.052L-7.66.733H-7.8V.6h.092V.182h-3.625V3.808h.413V3.716h.138v.138h-.413v.138h-.275a.918.918,0,0,1-.052-.436V3.447q0-.177,0-.353,0-.123,0-.245,0-.257,0-.515,0-.33,0-.66,0-.253,0-.507,0-.122,0-.243,0-.17,0-.34v-.1c0-.321,0-.321.052-.438A1.4,1.4,0,0,1-10.994-.007Z" transform="translate(30.474 18.963)" fill="#fff"/>
  <path id="Path_1038" data-name="Path 1038" d="M-7.633,0h.046V.413h-.138V.826h-.138v.367H14.716v-.5h-.138V.413h-.092V.138h.092l.046.413h.138l.046.688a2.149,2.149,0,0,1-.559.051h-.784l-.771,0-.831,0-1.44,0-1.51,0H8.342L4.964,1.269,1.682,1.261h-.1l-1.016,0-2.069,0h-.1l-6.354-.015L-8,1.377A5.751,5.751,0,0,1-7.862.551h.092l.017-.172A.845.845,0,0,1-7.633,0Z" transform="translate(8.052 4.598)" fill="#fff"/>
  <path id="Path_1039" data-name="Path 1039" d="M-1.192,0H2.663V.046H-1.054v3.9H2.663v.046H-1.146a1.033,1.033,0,0,1-.1-.544v-.11c0-.119,0-.238,0-.358q0-.124,0-.249,0-.26,0-.521,0-.334,0-.668,0-.257,0-.513,0-.123,0-.246,0-.172,0-.344v-.1C-1.243.1-1.243.1-1.192,0Z" transform="translate(20.197 13.317)" fill="#fff"/>
  <path id="Path_1040" data-name="Path 1040" d="M0,0H.138V.138H.046V.229H22.579V.275H0Z" transform="translate(0.189 5.424)" fill="#fff"/>
  <path id="Path_1041" data-name="Path 1041" d="M0,0H7.526V.138H0Z" transform="translate(7.715 1.936)" fill="#fff"/>
  <path id="Path_1042" data-name="Path 1042" d="M0,0H.138V3.717H4.681V.138h.046l.046,3.625-1.659,0H.176A.312.312,0,0,1,0,3.717Z" transform="translate(5.742 7.718)" fill="#fff"/>
  <path id="Path_1043" data-name="Path 1043" d="M-41.981,0h.138V3.763l.138.046h-.413V3.717l-.413-.046V3.534H-42.9l-.046-.138h-.229L-43.22,3.3q-.137-.048-.275-.092l-.138-.092V3.029l-.229-.046V2.845H-44V2.708h.138V2.8h.275v.138h.138v.138h.275v.138h.275V3.4h.138v.092h.367v.138h.413Z" transform="translate(45.795 19.145)" fill="#fff"/>
  <path id="Path_1044" data-name="Path 1044" d="M-172.694,0h.184V.092h-.138V.275h-.275V.551h-.092V.668q0,.215,0,.429,0,.093,0,.186,0,.133,0,.267c0,.054,0,.107,0,.162-.005.123-.005.123-.051.169-.1,0-.2.006-.3.006h-4.509l-2.858,0V.642h-.138V.459L-181,.413l.046-.184a1.038,1.038,0,0,1,.138.138V.5l.138.046V1.836h7.48l-.046-.413q-.006-.165-.006-.33c0-.053,0-.105,0-.16A2.848,2.848,0,0,1-173.2.5h.138l.017-.077a2.7,2.7,0,0,1,.12-.336h.229Z" transform="translate(188.44 0.054)" fill="#fff"/>
  <path id="Path_1045" data-name="Path 1045" d="M0,0H.046V3.763H4.727V3.9H0Z" transform="translate(12.396 13.363)" fill="#fff"/>
  <path id="Path_1046" data-name="Path 1046" d="M-97.319,0h.046V3.9H-102V3.763h4.681Z" transform="translate(107.834 13.363)" fill="#fff"/>
  <path id="Path_1047" data-name="Path 1047" d="M-2.156,0H2.662V.046H-2.064V.184h-.092V3.9l4.819.046c-.092.092-.092.092-.178.1H2.256l-.134,0H1.981l-.463-.006-.321,0-.845-.01-.862-.01L-2.2,3.993a1.94,1.94,0,0,1-.053-.534V3.352q0-.174,0-.347,0-.121,0-.242,0-.253,0-.506,0-.325,0-.649,0-.25,0-.5,0-.12,0-.239,0-.167,0-.334v-.1A.807.807,0,0,1-2.156,0Z" transform="translate(7.898 7.535)" fill="#fff"/>
  <path id="Path_1048" data-name="Path 1048" d="M-97.319,0h.138V3.809a1.388,1.388,0,0,1-.382.051h-2.8l-1.639,0V3.763h4.681Z" transform="translate(114.442 7.718)" fill="#fff"/>
  <path id="Path_1049" data-name="Path 1049" d="M0,0H4.681V.138H0Z" transform="translate(12.442 13.363)" fill="#fff"/>
  <path id="Path_1050" data-name="Path 1050" d="M0,0H4.681V.138H0Z" transform="translate(5.834 13.363)" fill="#fff"/>
  <path id="Path_1051" data-name="Path 1051" d="M0,0H4.681V.138H0Z" transform="translate(12.442 11.344)" fill="#fff"/>
  <path id="Path_1052" data-name="Path 1052" d="M-99.227,0h.046V.131q.007.612.014,1.224,0,.315.007.629t.007.607q0,.116,0,.232,0,.162,0,.324v.1a1.759,1.759,0,0,0,.055.428l-4.864.046L-104,3.625a2.559,2.559,0,0,1,.668-.051h2.613l1.445,0Z" transform="translate(109.65 19.283)" fill="#fff"/>
  <path id="Path_1053" data-name="Path 1053" d="M-75.375,0h.046V1.377h-1.606v.138h-.551v.092a.846.846,0,0,1-.33.049l-.175,0v.092l-.275.046v.092l-.275.046v.092l-.275.046v.092L-79,2.111V2.019h.275V1.882h.184V1.744h.367V1.606h.275V1.469h.551V1.331h1.882l-.046-.138c-.01-.151-.008-.3-.009-.453l0-.125a1.082,1.082,0,0,1,.1-.569Z" transform="translate(81.163 0.559)" fill="#fff"/>
  <path id="Path_1054" data-name="Path 1054" d="M0,0,3.763.046V.184H0Z" transform="translate(0.052 7.535)" fill="#fff"/>
  <path id="Path_1055" data-name="Path 1055" d="M0,0H.138V3.763H0Z" transform="translate(5.696 19.145)" fill="#fff"/>
  <path id="Path_1056" data-name="Path 1056" d="M0,0H.138V3.763H0Z" transform="translate(17.123 19.145)" fill="#fff"/>
  <path id="Path_1057" data-name="Path 1057" d="M0,0H3.763V.138H0Z" transform="translate(0.052 17.126)" fill="#fff"/>
  <path id="Path_1058" data-name="Path 1058" d="M0,0H3.717V.138H0Z" transform="translate(19.142 17.126)" fill="#fff"/>
  <path id="Path_1059" data-name="Path 1059" d="M0,0H3.717V.138H0Z" transform="translate(0.097 13.363)" fill="#fff"/>
  <path id="Path_1060" data-name="Path 1060" d="M0,0H3.717V.138H0Z" transform="translate(0.097 11.344)" fill="#fff"/>
  <path id="Path_1061" data-name="Path 1061" d="M0,0H3.717V.138H0Z" transform="translate(19.142 7.581)" fill="#fff"/>
  <path id="Path_1062" data-name="Path 1062" d="M0,0H.184V.092H.321V.229H.459V.367H.6a1.387,1.387,0,0,1,.146.889l-.009.579H2.57l.046.138h.5v.138H2.845V2.019H2.432V1.882H.551V.5H.413V.275H.275V.138L0,.092Z" transform="translate(16.572 0.054)" fill="#fff"/>
  <path id="Path_1063" data-name="Path 1063" d="M-.15,0h.138V3.4L-.1,3.442a.828.828,0,0,1-.051-.41v-.1q0-.162,0-.325,0-.112,0-.225,0-.3,0-.593t0-.6Q-.151.593-.15,0Z" transform="translate(12.592 19.283)" fill="#fff"/>
  <path id="Path_1064" data-name="Path 1064" d="M0,0,.138.046v3.3H0Z" transform="translate(12.442 7.856)" fill="#fff"/>
  <path id="Path_1065" data-name="Path 1065" d="M0,0,.138.046v3.3H0Z" transform="translate(12.442 13.638)" fill="#fff"/>
  <path id="Path_1066" data-name="Path 1066" d="M-6.622-.01h4.438c.665,0,1.327,0,1.99.052V.134H.035V.271H-.1V.18H-1.3V.317L-1.48.363V.271h.138V.134h.184V.042H-6.711V.134h-.229V.042A.6.6,0,0,1-6.622-.01Z" transform="translate(7.405 0.012)" fill="#fff"/>
  <path id="Path_1067" data-name="Path 1067" d="M-.954,0h.138V.092h.172l1.6,0,.822,0,.793,0H3.639c.088.011.088.011.226.1H-1Z" transform="translate(13.396 22.771)" fill="#fff"/>
  <path id="Path_1068" data-name="Path 1068" d="M-100.181,0h.046q0,.762,0,1.523,0,.354,0,.707t0,.682q0,.13,0,.261,0,.182,0,.364v.11c0,.248,0,.248-.052.3-.063,0-.126.006-.188.006h-2.92l-1.711,0V3.9h4.681V3.763h.138Z" transform="translate(117.442 13.363)" fill="#fff"/>
  <path id="Path_1069" data-name="Path 1069" d="M-1.125,0h.046V3.625h.5V3.534h.138v.138H-.85v.138h-.275a.923.923,0,0,1-.052-.438V3.262q0-.178,0-.355,0-.123,0-.246,0-.258,0-.516,0-.332,0-.663,0-.254,0-.508,0-.122,0-.245,0-.171,0-.341v-.1C-1.176.051-1.176.051-1.125,0Z" transform="translate(20.13 19.145)" fill="#fff"/>
  <path id="Path_1070" data-name="Path 1070" d="M0-.237l1.844,0,.856,0,.826,0H4.642c.085.011.085.011.177.1.009.122.012.238.01.36V.327c0,.123,0,.246,0,.369q0,.128,0,.256,0,.337,0,.674t0,.687q0,.675,0,1.349H4.773V-.054H4.635V-.192H0Z" transform="translate(12.488 19.199)" fill="#fff"/>
  <path id="Path_1071" data-name="Path 1071" d="M-11.639,0h.184V.092h-.138V.275h-.275V.551h-.092V1.836l-.184.046a4.371,4.371,0,0,1,0-1.377h.138l.017-.077a2.7,2.7,0,0,1,.12-.336h.229Z" transform="translate(27.386 0.054)" fill="#fff"/>
  <path id="Path_1072" data-name="Path 1072" d="M0-.356,1.431-.363l.665,0,.641,0h.69a1.619,1.619,0,0,1,.244.017.758.758,0,0,1,.1.5V.259c0,.123,0,.246,0,.369q0,.128,0,.256,0,.336,0,.673t0,.687q0,.674,0,1.347H3.717V-.173H3.58V-.31H0Z" transform="translate(0.235 7.891)" fill="#fff"/>
  <path id="Path_1073" data-name="Path 1073" d="M0-.237l1.393,0,.647,0,.624,0h.671a.548.548,0,0,1,.382.1,2.916,2.916,0,0,1,.016.36V.327c0,.123,0,.246,0,.369q0,.128,0,.256,0,.337,0,.674t0,.687q0,.675-.007,1.349H3.671V-.054H3.534V-.192H0Z" transform="translate(0.281 19.199)" fill="#fff"/>
  <path id="Path_1074" data-name="Path 1074" d="M0,0H.184V.138H.321V.229L.459.275V.367H.551V.5H.688V.642H.826V.78H.964V.964H1.1v.229h.138v.138l.138.046v.229l.138.046v.229l-.046-.138H1.331V1.514l-.092-.046-.184-.092V1.239H.918V.964H.826V.826H.688L.642.551H.413V.413H.275V.275H.138V.138H0Z" transform="translate(21.024 2.854)" fill="#fff"/>
  <path id="Path_1075" data-name="Path 1075" d="M-24.807,0h.138V.138h-.138V.275h-.138V.413h-.138V.551h-.092V.688h-.138V.826h-.138V.964h-.138v.275h-.138v.229h-.138v.138H-26V1.469h.092l.046-.229h.092V1.056h.138l.046-.229h.092l.046-.184h.092V.5h.138V.367h.138V.229h.138V.092h.138Z" transform="translate(26.465 2.991)" fill="#fff"/>
  <path id="Path_1076" data-name="Path 1076" d="M-.954,0H3.864V.046H-.862V.184H-1Z" transform="translate(6.696 7.535)" fill="#fff"/>
  <path id="Path_1077" data-name="Path 1077" d="M0,0H1.744V.138H0Z" transform="translate(17.261 1.936)" fill="#fff"/>
  <path id="Path_1078" data-name="Path 1078" d="M0,0H4.681V.138L4.543.092c-.062,0-.125-.007-.187-.007H3.982l-.436,0-.3,0-.8-.007L1.638.06.046.046,0,.138Z" transform="translate(5.834 13.363)" fill="#fff"/>
  <path id="Path_1079" data-name="Path 1079" d="M0,0H4.681V.046H.138V.138H0Z" transform="translate(12.442 13.363)" fill="#fff"/>
  <path id="Path_1080" data-name="Path 1080" d="M0,0H.138V.092H4.681V.138H0Z" transform="translate(12.442 11.344)" fill="#fff"/>
  <path id="Path_1081" data-name="Path 1081" d="M0,0H3.763V.046H.138V.5H.092V.275H0Z" transform="translate(0.052 19.007)" fill="#fff"/>
  <path id="Path_1082" data-name="Path 1082" d="M0,0H.046V1.193H1.882l.046.138h.5v.138H2.157V1.377H1.744V1.239H0Z" transform="translate(17.261 0.697)" fill="#fff"/>
  <path id="Path_1083" data-name="Path 1083" d="M0,0H.138V.275H.046v3.35H.138v.138H0Z" transform="translate(17.123 13.363)" fill="#fff"/>
  <path id="Path_1084" data-name="Path 1084" d="M0,0H3.9V.046H3.762L2.472.061,1.808.069l-.64.007-.244,0-.342,0H.48A1.184,1.184,0,0,0,.092.138.822.822,0,0,0,0,.321Z" transform="translate(0.052 11.481)" fill="#fff"/>
  <path id="Path_1085" data-name="Path 1085" d="M0,0H.367L.413.092A1.879,1.879,0,0,0,.688.138V.275H.918V.413H1.1V.551h.229V.688H1.056V.551H.918V.459H.642V.321L.413.275V.184H.138V.046Z" transform="translate(19.693 2.165)" fill="#fff"/>
  <path id="Path_1086" data-name="Path 1086" d="M-2.862,0h.046V3.9H-3V3.763h.138Z" transform="translate(20.123 13.363)" fill="#fff"/>
  <path id="Path_1087" data-name="Path 1087" d="M0,0,.184.046V3.855H.138V.138H0Z" transform="translate(17.123 19.007)" fill="#fff"/>
  <path id="Path_1088" data-name="Path 1088" d="M-9.307-.06h2.074l1.333,0v.046H-9.617V.129h-.138V-.009A.942.942,0,0,1-9.307-.06Z" transform="translate(28.759 7.59)" fill="#fff"/>
  <path id="Path_1089" data-name="Path 1089" d="M0,0H2.065V.092H0Z" transform="translate(20.703 22.908)" fill="#fff"/>
  <path id="Path_1090" data-name="Path 1090" d="M0,0H1.973V.092H0Z" transform="translate(0.281 22.908)" fill="#fff"/>
  <path id="Path_1091" data-name="Path 1091" d="M0,0H.138V.092H.413V.229H.551V.367H.826V.5H1.1V.642H.964V.551H.551L.5.459.367.413V.321L.138.275V.138H0Z" transform="translate(1.795 21.853)" fill="#fff"/>
  <path id="Path_1092" data-name="Path 1092" d="M-21.944,0l.046.138h-.138V.275h-.275V.413h-.275V.551H-23L-22.862.5V.367h.275V.229h.229V.092h.413Z" transform="translate(42.693 22.128)" fill="#fff"/>
  <path id="Path_1093" data-name="Path 1093" d="M0,0H.138V1.239H0Z" transform="translate(7.578 0.697)" fill="#fff"/>
  <path id="Path_1094" data-name="Path 1094" d="M0,0H.138V.229H.275V.5H.413V.642H.551V.78H.688v.275H.826v.138H.964v.138H1.1l-.046.138V1.377H.918V1.239H.78V1.1H.642V.964L.5.918V.78H.367V.551H.229V.413H.138L.092.138H0Z" transform="translate(0.465 20.247)" fill="#fff"/>
  <path id="Path_1095" data-name="Path 1095" d="M-6.679,0h.964V.092h.229V.229h-.138V.138H-6.816V.275L-7,.321V.229h.138V.092h.184Z" transform="translate(12.926 0.054)" fill="#fff"/>
  <path id="Path_1096" data-name="Path 1096" d="M-7.633,0h.046V.413h-.138V.826h-.138v.413h-.092L-8,1.377A5.751,5.751,0,0,1-7.862.551h.092l.017-.172A.845.845,0,0,1-7.633,0Z" transform="translate(8.052 4.598)" fill="#fff"/>
  <path id="Path_1097" data-name="Path 1097" d="M-3.123,0h.046V.275h-.092V1.331a.46.46,0,0,1-.1-.344V.615C-3.272.149-3.272.149-3.123,0Z" transform="translate(8.911 0.559)" fill="#fff"/>
  <path id="Path_1098" data-name="Path 1098" d="M0-.036C.491-.045.979-.017,1.469.01V.056A14.111,14.111,0,0,1,0,.1Z" transform="translate(4.228 1.972)" fill="#fff"/>
  <path id="Path_1099" data-name="Path 1099" d="M-1.137,0H-1V.275h-.092V1.331h-.046A4.1,4.1,0,0,1-1.137,0Z" transform="translate(16.379 0.559)" fill="#fff"/>
  <path id="Path_1100" data-name="Path 1100" d="M-10.5,0h.138V.138H-10.5V.275h-.138V.413h-.138V.551h-.092V.688H-11V.551h.092V.367h.138V.229h.138V.092h.138Z" transform="translate(12.153 2.991)" fill="#fff"/>
  <path id="Path_1101" data-name="Path 1101" d="M0,0H1.056V.138H0Z" transform="translate(4.778 1.936)" fill="#fff"/>
  <path id="Path_1102" data-name="Path 1102" d="M0,0A1.276,1.276,0,0,1,.184.138V.275L.321.321V1.606H.275V.413H.138V.229L0,.184Z" transform="translate(7.44 0.284)" fill="#fff"/>
  <path id="Path_1103" data-name="Path 1103" d="M0,0H.138V.092L.413.138V.229H.78V.367h.275V.413H.642V.275H.275L.229.138H0Z" transform="translate(2.622 22.403)" fill="#fff"/>
  <path id="Path_1104" data-name="Path 1104" d="M0,0H1.882V.046H.138V.138H0Z" transform="translate(3.815 1.89)" fill="#fff"/>
  <path id="Path_1105" data-name="Path 1105" d="M-8.587,0h.138V.184h-.138V.321h-.138V.459h-.138V.6h-.092L-9,.688V.5h.092l.046-.229h.138V.138h.138Z" transform="translate(30.437 21.027)" fill="#fff"/>
  <path id="Path_1106" data-name="Path 1106" d="M0,0H.092L.138.413H.275L.321,1.1H.275L.229.551H.092V.275H0Z" transform="translate(22.538 4.735)" fill="#fff"/>
  <path id="Path_1107" data-name="Path 1107" d="M0,0H.367L.413.092A1.879,1.879,0,0,0,.688.138V.275H.413V.184H.138V.046Z" transform="translate(19.693 2.165)" fill="#fff"/>
  <path id="Path_1108" data-name="Path 1108" d="M0,0H.138V.184H.046V1.514H0Z" transform="translate(5.834 0.421)" fill="#fff"/>
  <path id="Path_1109" data-name="Path 1109" d="M0,0H.184V.092H.321V.229H.459V.367H.6A.337.337,0,0,1,.688.642H.551V.5H.413V.275H.275V.138L0,.092Z" transform="translate(16.572 0.054)" fill="#fff"/>
  <path id="Path_1110" data-name="Path 1110" d="M-11.449,0h.138V.138h-.275V.275H-12l.138-.046V.092h.413Z" transform="translate(31.693 22.403)" fill="#fff"/>
  <path id="Path_1111" data-name="Path 1111" d="M-4.771,0h.046V.367l-.138.046V.688H-5V.551h.092V.138h.138Z" transform="translate(27.401 19.696)" fill="#fff"/>
  <path id="Path_1112" data-name="Path 1112" d="M0,0H.275V.046H.046V.138H.138V.688L.092.551H0Z" transform="translate(0.189 19.145)" fill="#fff"/>
  <path id="Path_1113" data-name="Path 1113" d="M-.954,0h.275V.138H-.4V.275H-.541V.184H-.954L-1,.092Z" transform="translate(3.3 22.22)" fill="#fff"/>
  <path id="Path_1114" data-name="Path 1114" d="M-7.633,0l.046.138-.138.046V.321h-.138V.551H-8V.413h.092V.138h.184V.046Z" transform="translate(29.988 20.476)" fill="#fff"/>
  <path id="Path_1115" data-name="Path 1115" d="M-2.862,0h.642V.092l.138.046A1.687,1.687,0,0,1-2.725.046V.138H-3l.138-.046Z" transform="translate(18.792 0.054)" fill="#fff"/>
  <path id="Path_1116" data-name="Path 1116" d="M0,0H.138V.138L.275.184V.413L.413.459V.688L.367.551H.229V.321L.138.275A.782.782,0,0,1,0,.138Z" transform="translate(22.125 4.047)" fill="#fff"/>
  <path id="Path_1117" data-name="Path 1117" d="M-9.183,0h.114l.087,0V.137h-.642A.622.622,0,0,1-9.183,0Z" transform="translate(27.987 1.937)" fill="#fff"/>
  <path id="Path_1118" data-name="Path 1118" d="M0,0H.138V.275H.275V.413H.413V.551H.551L.5.688V.6H.367V.459H.229V.321H.092V.184H0Z" transform="translate(1.015 21.027)" fill="#fff"/>
  <path id="Path_1119" data-name="Path 1119" d="M-8.587,0l.046.138h-.138V.275h-.138l-.046.138H-9V.275h.138V.138l.275-.046Z" transform="translate(29.886 21.715)" fill="#fff"/>
  <path id="Path_1120" data-name="Path 1120" d="M0,0H.184V.367L.275.413H.138V.275H0Z" transform="translate(21.942 3.817)" fill="#fff"/>
  <path id="Path_1121" data-name="Path 1121" d="M-1.908,0h.092l-.046.688H-2V.551h.092Z" transform="translate(24.676 19.007)" fill="#fff"/>
  <path id="Path_1122" data-name="Path 1122" d="M0,0H.688V.138H.413V.046H0Z" transform="translate(19.005 2.028)" fill="#fff"/>
  <path id="Path_1123" data-name="Path 1123" d="M0,0H.184V.138H.321V.229L.413.275H.138V.138H0Z" transform="translate(21.024 2.854)" fill="#fff"/>
  <path id="Path_1124" data-name="Path 1124" d="M-1.006,0-.96.138h.092L-.96.5h-.092A1.072,1.072,0,0,1-1.006,0Z" transform="translate(1.058 0.146)" fill="#fff"/>
  <path id="Path_1125" data-name="Path 1125" d="M-2.862,0h.138V.138h-.092V.367l-.138.046L-3,.5V.275h.138Z" transform="translate(25.217 20.109)" fill="#fff"/>
  <path id="Path_1126" data-name="Path 1126" d="M0,0H.367V.184H.092V.046Z" transform="translate(20.244 2.441)" fill="#fff"/>
  <path id="Path_1127" data-name="Path 1127" d="M-5.725,0h.275V.138H-6V.092h.275Z" transform="translate(9.677 1.936)" fill="#fff"/>
  <path id="Path_1128" data-name="Path 1128" d="M0,0H.138V.5H.092V.275H0Z" transform="translate(0.052 19.007)" fill="#fff"/>
  <path id="Path_1129" data-name="Path 1129" d="M-.954,0h.138V.413L-.862.275H-.954Q-.98.161-1,.046Z" transform="translate(1.281 19.833)" fill="#fff"/>
  <path id="Path_1130" data-name="Path 1130" d="M-1.908,0h.046V.459h-.092L-2,.6q.01-.1.02-.2l.011-.11A2.205,2.205,0,0,1-1.908,0Z" transform="translate(2.052 5.378)" fill="#fff"/>
  <path id="Path_1131" data-name="Path 1131" d="M0,0H.275V.092H.551V.138l-.224,0L.2.142A.331.331,0,0,1,0,.092Z" transform="translate(19.142 2.074)" fill="#fff"/>
  <path id="Path_1132" data-name="Path 1132" d="M-2.862,0l.138.046h-.092V.321H-3l.046-.184h.092Z" transform="translate(3.969 3.496)" fill="#fff"/>
  <path id="Path_1133" data-name="Path 1133" d="M-6.679,0h.138V.138h-.275V.275L-7,.321V.229h.138V.092h.184Z" transform="translate(12.926 0.054)" fill="#fff"/>
  <path id="Path_1134" data-name="Path 1134" d="M-4.771,0h.184V.092l-.275.046V.229H-5V.092h.229Z" transform="translate(20.517 0.054)" fill="#fff"/>
  <path id="Path_1135" data-name="Path 1135" d="M-5.725,0h.138V.138h-.275V.275H-6l.092-.184h.184Z" transform="translate(21.379 0.192)" fill="#fff"/>
  <path id="Path_1136" data-name="Path 1136" d="M0,0H.275V.138H0Z" transform="translate(19.005 22.816)" fill="#fff"/>
  <path id="Path_1137" data-name="Path 1137" d="M-5.725,0l.046.138h-.138V.275H-6V.138l.275-.046Z" transform="translate(26.473 22.128)" fill="#fff"/>
  <path id="Path_1138" data-name="Path 1138" d="M0,0H.138V.275H0Z" transform="translate(22.63 5.286)" fill="#fff"/>
  <path id="Path_1139" data-name="Path 1139" d="M0,0H.138L.184.413H.138V.184H0Z" transform="translate(22.355 4.598)" fill="#fff"/>
  <path id="Path_1140" data-name="Path 1140" d="M0,0H.275V.138H0Z" transform="translate(1.933 2.716)" fill="#fff"/>
  <path id="Path_1141" data-name="Path 1141" d="M0,0H.367V.138H.138V.046Z" transform="translate(19.693 2.165)" fill="#fff"/>
  <path id="Path_1142" data-name="Path 1142" d="M0,0H.138V.092H.367V.229H.229V.138L0,.092Z" transform="translate(7.073 0.054)" fill="#fff"/>
  <path id="Path_1143" data-name="Path 1143" d="M0,0H.138V.229H.275L.229.367V.275H.092V.138H0Z" transform="translate(0.465 20.247)" fill="#fff"/>
  <path id="Path_1144" data-name="Path 1144" d="M-1.908,0h.275V.092L-2,.138l.092-.046Z" transform="translate(5.31 2.074)" fill="#fff"/>
  <path id="Path_1145" data-name="Path 1145" d="M0,0H.413L.459.138H.275V.046H0Z" transform="translate(18.729 1.89)" fill="#fff"/>
  <path id="Path_1146" data-name="Path 1146" d="M0,0H.138V.138H.046V.5H0Z" transform="translate(15.379 0.467)" fill="#fff"/>
  <path id="Path_1147" data-name="Path 1147" d="M0,0H.367C.229.092.229.092.106.075L0,.046Z" transform="translate(19.51 22.908)" fill="#fff"/>
  <path id="Path_1148" data-name="Path 1148" d="M0,0H.321L.138.092Z" transform="translate(3.126 22.908)" fill="#fff"/>
  <path id="Path_1149" data-name="Path 1149" d="M0,0,.046.184Z" transform="translate(0.052 18.778)" fill="#fff"/>
  <path id="Path_1150" data-name="Path 1150" transform="translate(0.006 0.008)" fill="#fff"/>
  <path id="Path_1151" data-name="Path 1151" transform="translate(0.006 0.008)" fill="#fff"/>
  <path id="Path_1152" data-name="Path 1152" transform="translate(0.006 0.008)" fill="#fff"/>
  <path id="Path_1153" data-name="Path 1153" transform="translate(0.006 0.008)" fill="#fff"/>
</svg>
