<svg id="Capture_d_écran__le_2023-11-18_à_18.13.07-removebg-preview" xmlns="http://www.w3.org/2000/svg" width="27.576" height="23" viewBox="0 0 27.576 23">
  <path id="Path_1186" data-name="Path 1186" d="M-45.467,0h22.442l.055.165h.331v.11l.331.055v.11l.331.055v.11h.165V.772h.165V.937h.165V1.1h.165v.165h.165v.165l.165.055v.276h.165c.189.4.189.4.165.662h.11v17.2H-33.116l.055.11c.005.11.007.221.007.331v.179a.439.439,0,0,1-.062.262l4.632.055a1.991,1.991,0,0,1,.062.662c0,.073,0,.073,0,.147q0,.154,0,.308,0,.237,0,.473,0,.149,0,.3c0,.071,0,.071,0,.144,0,.332,0,.332-.063.393-.15.005-.3.007-.448.007h-6.846l-4.34,0a1.9,1.9,0,0,1-.062-.634c0-.046,0-.092,0-.139q0-.145,0-.291,0-.223,0-.445,0-.141,0-.283v-.135a1.484,1.484,0,0,1,.063-.5l4.632-.055V19.74l.055-.11H-48V19.8h-.11q0-3.037,0-6.073,0-.359,0-.719v-.144q0-1.155,0-2.31,0-1.187,0-2.374,0-.731,0-1.462,0-.5,0-1.006,0-.289,0-.578c0-.848.011-1.691.062-2.537h.11l.008-.1.012-.137.012-.136c.023-.119.023-.119.133-.23a1.285,1.285,0,0,0,.055-.221h.11l.055-.331h.11l.055-.165h.11V1.1h.165V.937h.165V.772h.165l.055-.165h.11V.5l.331-.055.055-.165h.276V.165l.5-.055Zm12.792,4.742v.11l-.331.055v.11l-.131.021c-.152.023-.152.023-.255.145l-.055.165h-.165v.165h-.165v.165h-.165V6.01h-.165l-.055.662h-.11l-.055,2.647-.11.055v-.11h-.882v.11l-.131.008-.169.012-.169.012-.138.023-.055.11a1.473,1.473,0,0,1-.221.055V9.7l-.331.055v.165H-36.7q-.114.135-.221.276l-.11.055v.11l-.165.055V10.7h-.165v.331h-.165v.5h-.11v1.1h.11v.441l.165.055V13.4l.11.055a2.167,2.167,0,0,1,.055.276h.165V13.9h.165v.165h.165v.165h.165v.165h.331v.165l.134.021.141.034.055.11a1.159,1.159,0,0,0,.245.028c.239.015.239.015.362.138.142.008.278.01.42.007l.118,0,.289-.005v-.11l.607-.055v-.165h.331v-.165h.331v-.165h.165v-.165l.165-.055a.747.747,0,0,0,.32-.458l.01-.148h.11l.055-.276h.11l.022-.107.03-.138.029-.138c.03-.114.03-.114.085-.169.006-.075.008-.15.009-.224l0-.146v-.162l0-.17q0-.279,0-.558,0-.193,0-.385,0-.508.008-1.017t.009-1.037q.009-1.018.017-2.036l2.206-.055V4.742Z" transform="translate(48.12 0)" fill="#fff"/>
  <path id="Path_1187" data-name="Path 1187" d="M0,0H12.627a4.19,4.19,0,0,1,.055,1.323H8.106V3.584H7.94a1.9,1.9,0,0,1-.062-.634V2.811q0-.145,0-.291,0-.223,0-.445,0-.141,0-.283V1.657a1.484,1.484,0,0,1,.063-.5L12.572,1.1V.331l.055-.11H.055L0,.386Z" transform="translate(0.062 19.409)" fill="#fff"/>
  <path id="Path_1188" data-name="Path 1188" d="M0,0H12.627V.221H.055L.11.331c.005.11.007.221.007.331V.841A.439.439,0,0,1,.055,1.1l4.632.055a1.027,1.027,0,0,1,.061.387c0,.066,0,.066,0,.134V1.97q0,.233,0,.467,0,.158,0,.317,0,.388,0,.776l-.165.055V1.323H0Z" transform="translate(14.949 19.409)" fill="#fff"/>
  <path id="Path_1189" data-name="Path 1189" d="M-2.835,0H19.607l.055.165h.331v.11l.165.055h-.5V.221L-3,.165-2.835.11Z" transform="translate(5.488 0)" fill="#fff"/>
  <path id="Path_1190" data-name="Path 1190" d="M0,0H12.682V1.158H8.106V3.419H7.94a1.9,1.9,0,0,1-.062-.634V2.646q0-.145,0-.291,0-.223,0-.445,0-.141,0-.283V1.492a1.484,1.484,0,0,1,.063-.5L12.572.937V.165l.055-.11H.055L0,.221Z" transform="translate(0.062 19.575)" fill="#fff"/>
  <path id="Path_1191" data-name="Path 1191" d="M-193.7,0h.055V2.261H-205V2.1h11.3Z" transform="translate(213.167 20.732)" fill="#fff"/>
  <path id="Path_1192" data-name="Path 1192" d="M0,0H12.627V.055H.055L.11.165C.116.276.117.386.117.5V.675A.439.439,0,0,1,.055.937L4.687.993a1.027,1.027,0,0,1,.061.387c0,.066,0,.066,0,.134V1.8q0,.233,0,.467,0,.158,0,.317,0,.388,0,.776l-.165.055V1.158H0Z" transform="translate(14.949 19.575)" fill="#fff"/>
  <path id="Path_1193" data-name="Path 1193" d="M-5.669,0h2.757V2.426H-5.173v6.01h-.165v.331H-5.5V9.1h-.165v.165l-.165-.055h.11l.055-.331h.11L-5.5,8.6h.11l.01-.107.014-.138.014-.138c.017-.114.017-.114.073-.169.006-.074.008-.149.008-.224V7.349q0-.183,0-.365,0-.288,0-.577,0-.612.009-1.224,0-.709.011-1.418,0-.285,0-.57,0-.174,0-.347V2.412c.007-.1.007-.1.063-.151.163,0,.325-.006.488-.005h.148l.47,0h.318l.781,0V.221H-5.835v.11H-6V.165h.331Z" transform="translate(21.28 4.521)" fill="#fff"/>
  <path id="Path_1194" data-name="Path 1194" d="M-2.835,0H19.607l.055.165h.331v.11l.165.055h-.5V.221l-.139,0-.182,0-.18,0a.772.772,0,0,1-.326-.061V.055H-2.338v.11H-3L-2.835.11Z" transform="translate(5.488 0)" fill="#fff"/>
  <path id="Path_1195" data-name="Path 1195" d="M-.2,0h.165V5.238l-.11.055a1.289,1.289,0,0,1-.061-.6V4.542q0-.252,0-.5,0-.174,0-.348,0-.459,0-.918t0-.936Q-.2.919-.2,0Z" transform="translate(16.308 7.113)" fill="#fff"/>
  <path id="Path_1196" data-name="Path 1196" d="M-63.306,0h.331l-.11.055-.055.165-.11.11h-.165V.5h-.165V.662h-.165V.993h-.165l0,.117,0,.152,0,.151a.4.4,0,0,1-.061.242h-.11v2.7h-.165v-.11h-.882v.11l-.117.02-.152.028-.151.027c-.14.026-.14.026-.242.145h-.221v.11l-.331.055v.165H-66.5l-.055.165h-.11l-.055.165h-.11v.11L-67,5.4v-.11h.11l.055-.276h.165V4.852h.276V4.687h.165V4.521h.331V4.356h.331V4.191h1.434V1.158h.165V.827h.165V.5h.165V.331h.165V.165h.165Z" transform="translate(77.924 5.018)" fill="#fff"/>
  <path id="Path_1197" data-name="Path 1197" d="M0,0H12.627V.055H.165v.11H0Z" transform="translate(14.949 19.409)" fill="#fff"/>
  <path id="Path_1198" data-name="Path 1198" d="M-10.393,0l.165.11h-.11V6.12H-10.5v.331h-.165v.331h-.165v.165L-11,6.892h.11l.055-.331h.11l.055-.276h.11l.01-.107.014-.138.014-.138c.017-.114.017-.114.073-.169.006-.075.008-.15.009-.224l0-.146V5.2l0-.17q0-.279,0-.558,0-.193,0-.385,0-.508.008-1.017t.009-1.037Q-10.4,1.018-10.393,0Z" transform="translate(26.446 6.837)" fill="#fff"/>
  <path id="Path_1199" data-name="Path 1199" d="M0,0H2.757V.165H0Z" transform="translate(15.611 4.521)" fill="#fff"/>
  <path id="Path_1200" data-name="Path 1200" d="M0,0H.165V2.261H0Z" transform="translate(18.368 4.687)" fill="#fff"/>
  <path id="Path_1201" data-name="Path 1201" d="M0,0H.165V2.206L0,2.261Z" transform="translate(19.526 20.732)" fill="#fff"/>
  <path id="Path_1202" data-name="Path 1202" d="M-24.566,0h1.489V.165h-.165V.055h-.882v.11l-.117.02-.152.028-.151.027c-.14.026-.14.026-.242.145h-.221V.5l-.331.055V.717H-25.5l-.055.165h-.11l-.055.165h-.11v.11L-26,1.213V1.1h.11l.055-.276h.165V.662h.276V.5h.165V.331h.331V.165h.331Z" transform="translate(36.924 9.208)" fill="#fff"/>
  <path id="Path_1203" data-name="Path 1203" d="M0,0H.165V.11H.331V.276H.5V.441H.662V.607H.827V.772H.993V.937l.165.055v.276h.165c.189.4.189.4.165.662H1.6v.5H1.434V1.764H1.268V1.434H1.1V1.158H.937V.827H.772V.662H.607V.5H.441V.331H.165V.165H0Z" transform="translate(25.977 0.496)" fill="#fff"/>
  <path id="Path_1204" data-name="Path 1204" d="M0,0,.055.165h.11V1.93H.055L0,2.1Z" transform="translate(7.947 20.732)" fill="#fff"/>
  <path id="Path_1205" data-name="Path 1205" d="M0,0H3.088V2.1H3.033V.055H.165v.11H0Z" transform="translate(15.28 4.687)" fill="#fff"/>
  <path id="Path_1206" data-name="Path 1206" d="M0,0H.165V.331H.055v1.1h.11L.2,1.773l.023.1.11.055V2.1H.11V1.93H0Z" transform="translate(10.428 11.193)" fill="#fff"/>
  <path id="Path_1207" data-name="Path 1207" d="M-10.393,0h.055V1.158H-10.5v.331h-.165V1.82h-.165v.165L-11,1.93h.11l.055-.331h.11l.055-.276h.11l.01-.107.014-.138.014-.138c.017-.114.017-.114.073-.169.013-.13.023-.259.031-.389L-10.4.167Z" transform="translate(26.446 11.8)" fill="#fff"/>
  <path id="Path_1208" data-name="Path 1208" d="M0,0H2.757L2.7.165V.055H.331v.11H0Z" transform="translate(15.611 4.521)" fill="#fff"/>
  <path id="Path_1209" data-name="Path 1209" d="M0,0H.165V.165H.055V3.033H0Z" transform="translate(13.792 6.176)" fill="#fff"/>
  <path id="Path_1210" data-name="Path 1210" d="M0,0H.165V2.261H0V1.93H.11V.165H0Z" transform="translate(8.002 20.732)" fill="#fff"/>
  <path id="Path_1211" data-name="Path 1211" d="M-10.393,0h.331V.221H-10.5v.11H-11V.221a.666.666,0,0,1,.365-.059l.137,0,.1,0Z" transform="translate(24.681 14.557)" fill="#fff"/>
  <path id="Path_1212" data-name="Path 1212" d="M-5.669,0h.276l.055.165h.331v.11l.165.055h-.5V.221H-6V.165h.331Z" transform="translate(30.489 0)" fill="#fff"/>
  <path id="Path_1213" data-name="Path 1213" d="M-1.89,0h.055V2.261H-2V2.1h.11Z" transform="translate(20.368 4.687)" fill="#fff"/>
  <path id="Path_1214" data-name="Path 1214" d="M0,0H.827V.165H0Z" transform="translate(12.854 14.888)" fill="#fff"/>
  <path id="Path_1215" data-name="Path 1215" d="M0,0H.165V.827H0Z" transform="translate(10.263 11.634)" fill="#fff"/>
  <path id="Path_1216" data-name="Path 1216" d="M-17.007,0l.055.11-.055.11h-.386V.386h-.276V.551H-18L-17.89.5V.386l.331-.055L-17.5.165h.276V.055Z" transform="translate(19.385 0.11)" fill="#fff"/>
  <path id="Path_1217" data-name="Path 1217" d="M0,0,.221.055v.11L.325.16l.137,0L.6.149.717.165l.11.165H.165V.165H0Z" transform="translate(12.027 14.557)" fill="#fff"/>
  <path id="Path_1218" data-name="Path 1218" d="M-2.835,0h.165V.221h-.11l0,.21a1.016,1.016,0,0,1-.059.4H-3V.5h.11Z" transform="translate(3.062 2.095)" fill="#fff"/>
  <path id="Path_1219" data-name="Path 1219" d="M0,0,.165.055V.331H.331V.5H.5V.662H.276V.551H.11V.221H0Z" transform="translate(10.759 13.399)" fill="#fff"/>
  <path id="Path_1220" data-name="Path 1220" d="M0,0H.165V.165H.331V.331H.662V.5H.441V.386L.11.331V.221H0Z" transform="translate(11.255 14.061)" fill="#fff"/>
  <path id="Path_1221" data-name="Path 1221" d="M0,0H1.489V.165H1.323V.055H.165v.11H0Z" transform="translate(12.358 9.208)" fill="#fff"/>
  <path id="Path_1222" data-name="Path 1222" d="M-1.919,0h.055V1.158H-2.03q0-.165,0-.331l.055-.055c.013-.13.023-.259.031-.389l.014-.216Z" transform="translate(17.972 11.8)" fill="#fff"/>
  <path id="Path_1223" data-name="Path 1223" d="M-2.835,0h.662l-.165.055v.11H-3L-2.835.11Z" transform="translate(5.488 0)" fill="#fff"/>
  <path id="Path_1224" data-name="Path 1224" d="M0,0H.165L.186.134.221.276l.11.055V.5H.11V.331H0Z" transform="translate(10.428 12.792)" fill="#fff"/>
  <path id="Path_1225" data-name="Path 1225" d="M-5.669,0H-5.5V.221h-.165v.11H-6V.165h.331Z" transform="translate(20.619 14.226)" fill="#fff"/>
  <path id="Path_1226" data-name="Path 1226" d="M-5.669,0h.11V.221h-.11l-.055.165h-.11V.5L-6,.551V.441h.11l.055-.276h.165Z" transform="translate(16.924 9.87)" fill="#fff"/>
  <path id="Path_1227" data-name="Path 1227" d="M0,0H.165V.331H.055L0,.551Z" transform="translate(10.428 11.193)" fill="#fff"/>
  <path id="Path_1228" data-name="Path 1228" d="M0,0H.827V.055H.165v.11H0Z" transform="translate(15.28 4.687)" fill="#fff"/>
  <path id="Path_1229" data-name="Path 1229" d="M-7.559,0-7.5.165h-.165V.331H-8l.11-.055V.165L-7.559.11Z" transform="translate(9.385 0.331)" fill="#fff"/>
  <path id="Path_1230" data-name="Path 1230" d="M-5.669,0h.276V.11a.666.666,0,0,1-.365.059l-.137,0-.1,0V.11h.331Z" transform="translate(18.192 9.263)" fill="#fff"/>
  <path id="Path_1231" data-name="Path 1231" d="M-1.89,0h.055c.007.372.007.372-.055.5H-2V.165h.11Z" transform="translate(15.847 6.176)" fill="#fff"/>
  <path id="Path_1232" data-name="Path 1232" d="M-.945,0h.717V.055H-.835v.11H-1Z" transform="translate(3.378 0.165)" fill="#fff"/>
  <path id="Path_1233" data-name="Path 1233" d="M-7.559-.067l-.11.055V.1H-8v-.11A.843.843,0,0,1-7.559-.067Z" transform="translate(21.681 14.789)" fill="#fff"/>
  <path id="Path_1234" data-name="Path 1234" d="M0,0H.165V.221h.11v.11H.11V.221H0Z" transform="translate(11.255 14.061)" fill="#fff"/>
  <path id="Path_1235" data-name="Path 1235" d="M0,0H.165V.331H0Z" transform="translate(27.411 2.592)" fill="#fff"/>
  <path id="Path_1236" data-name="Path 1236" d="M-2.835,0h.055V.386L-3,.441l.055-.276h.11Z" transform="translate(3.337 1.599)" fill="#fff"/>
  <path id="Path_1237" data-name="Path 1237" d="M0,0,.055.11H.221V.276h.11V.441H.165V.165H0Z" transform="translate(26.915 1.489)" fill="#fff"/>
  <path id="Path_1238" data-name="Path 1238" d="M0,0H.276L.331.165H0Z" transform="translate(24.819 0)" fill="#fff"/>
</svg>
