<svg xmlns="http://www.w3.org/2000/svg" width="22.948" height="23" viewBox="0 0 22.948 23">
  <path id="Path_659" data-name="Path 659" d="M-217.494,0h2.074V.046l.276.092V.23h.369l.046.092a1.359,1.359,0,0,0,.23.046V.507h.138V.645h.138V.783h.276V.922h.138V1.06h.138V1.2h.138v.138h.138v.138h.138v.138h.138v.23l.138.046v.092l.138.046c.092.092.092.092.092.23h.138V2.4h.138v.138h.138v.138h.138v.138h.138v.138h.138v.138h.138v.138h.138v.138h.138a.522.522,0,0,1,.138.369h.138v.138l.138.046c.092.092.092.092.092.23h.138v.138h.138v.138h.138v.138h.138V4.7h.138v.138h.138v.138h.138v.138h.138l.046.138h.092v.23h.138v.138h.138V5.76l.138.046c.092.092.092.092.092.23h.138v.138h.138v.138h.138v.138h.138v.138h.138v.138h.138v.138h.138a.522.522,0,0,1,.138.369H-208v.138h.138v.138h.138v.138h.138v.092l.092.046v.138h.138v.138h.138V8.2h.138V8.34h.138v.138h.138v.138h.138v.138h.138a.522.522,0,0,1,.138.369h.138v.138h.138V9.4h.138v.138h.138v.092l.115.089.115.1v.138h.138v.138l.138.046v.23l.138.046.046.276h.092V20.782h-.092l-.046.415h-.138l.006.132c-.006.144-.006.144-.1.236-.032.061-.063.122-.092.184h-.092v.138l-.092.092-.092.138h-.092v.138l-.089.017-.1.029-.046.092h-.138v.138h-.184v.092l-.461.23.138.092c-.65.036-1.3.053-1.948.052h-2.823c-.247,0-.247,0-.3-.052,0-.084-.006-.168-.006-.252V22.53c0-.061,0-.121,0-.184s0-.128,0-.192q0-.261,0-.523t0-.546q0-.517,0-1.034,0-.589,0-1.177,0-1.211,0-2.423h-.138v-.507l-.138-.046v-.369h-.138l-.046-.276h-.092l-.046-.276h-.092v-.23l-.138-.046v-.23h-.138v-.138h-.138v-.138l-.138-.046-.092-.092v-.138h-.138v-.138h-.138V13.64h-.138V13.5h-.138l-.092-.092a1.074,1.074,0,0,0-.184-.046v-.138h-.138v-.138h-.276v-.092l-.276-.046v-.092h-.23v-.138l-.086,0h-.113l-.112,0a.6.6,0,0,1-.242-.051V12.58l-.118,0h-.153l-.152,0a.36.36,0,0,1-.222-.051v-.092l-.383.017-.11,0-.106.005-.1,0c-.1.011-.1.011-.226.107a2.511,2.511,0,0,1-.308.006l-.165,0-.126,0v.092a.556.556,0,0,1-.305.049h-.114l-.087,0v.138h-.23v.092l-.276.046v.092h-.276v.138l-.138.046v.092h-.276V13.5h-.138v.138h-.138v.138h-.138v.138h-.138v.138a.629.629,0,0,1-.138.138h-.092v.138h-.138v.138h-.138v.23l-.092.046a1.358,1.358,0,0,0-.046.23h-.092l-.046.138h-.138v.415h-.138V15.9l-.092.046a1.6,1.6,0,0,0-.029.279l-.01.154-.007.119-.138-.046v.1q0,1.219,0,2.438,0,.589,0,1.179,0,.514,0,1.027,0,.272,0,.544,0,.256,0,.512,0,.139,0,.278c0,.055,0,.109,0,.166v.145c-.006.107-.006.107-.052.153-.142,0-.283.005-.425,0h-.135l-.446,0h-.154l-.806-.005-.832,0-.64,0h-.306c-.144,0-.287,0-.43,0h-.127a1.375,1.375,0,0,1-.706-.2,2.746,2.746,0,0,0-.337-.15c-.062-.03-.123-.061-.184-.092v-.138l-.107-.017a.543.543,0,0,1-.262-.121v-.138h-.138l-.017-.089-.029-.1-.092-.046V21.75h-.138c-.052-.126-.1-.25-.138-.38s-.032-.133-.138-.173a2.511,2.511,0,0,1-.046-.276H-228V10.414h.046l.046.23.092-.276h.092v-.23l.138-.046V9.953h.138V9.815q.114-.094.23-.184V9.538h.138V9.4h.138V9.262h.138V9.124h.138l.046-.138h.092V8.847h.138v-.23h.092l.046-.138h.138V8.34h.138V8.2h.138l.017-.086a.307.307,0,0,1,.121-.19h.138V7.787h.092l.046-.184h.092V7.511l.1-.078a1.271,1.271,0,0,0,.455-.567h.138V6.728h.138V6.589h.138V6.451h.138V6.313h.138l.009-.078a.776.776,0,0,1,.268-.337h.092l.046-.138h.092V5.622h.138l.009-.086c.037-.1.037-.1.156-.156l.112-.035v-.23h.092l.046-.138h.138V4.838h.138V4.7h.138V4.562h.138V4.424h.138V4.285h.138V4.147a.629.629,0,0,1,.138-.138h.092l.046-.138h.092V3.732h.138V3.594h.138v-.23h.092l.046-.138h.138V3.087h.138V2.949H-221V2.811h.138V2.673h.138l.014-.084a.413.413,0,0,1,.185-.236,2.231,2.231,0,0,0,.354-.372h.092l.046-.138h.092l.014-.107a.381.381,0,0,1,.17-.262h.092V1.336h.138V1.2h.138V1.06h.138V.922h.138V.783l.138-.046V.645h.276V.507h.138V.369l.112-.017.118-.029.046-.092h.369V.092h.415Z" transform="translate(228)" fill="#ffffff"/>
</svg>
